SplineFontDB: 3.0
FontName: allnighter
FullName: All-nighter
FamilyName: allnighter
Weight: Medium
Copyright: Copyright Daniel Hulme 2009.\nCreated with FontForge 2.0 (http://fontforge.sf.net)
UComments: "2009-2-1: Created." 
Version: 001.000
ItalicAngle: 0
UnderlinePosition: 100
UnderlineWidth: 50
Ascent: 792
Descent: 208
LayerCount: 2
Layer: 0 0 "Back" 
Layer: 1 0 "Fore" 
NeedsXUIDChange: 1
XUID: [1021 710 1036088000 13664442]
FSType: 8
OS2Version: 0
OS2_WeightWidthSlopeOnly: 0
OS2_UseTypoMetrics: 1
CreationTime: 1233496417
ModificationTime: 1234121152
PfmFamily: 49
TTFWeight: 500
TTFWidth: 5
LineGap: 0
VLineGap: 0
Panose: 2 0 6 9 0 0 0 0 0 4
OS2TypoAscent: 0
OS2TypoAOffset: 1
OS2TypoDescent: 0
OS2TypoDOffset: 1
OS2TypoLinegap: 0
OS2WinAscent: 792
OS2WinAOffset: 0
OS2WinDescent: 208
OS2WinDOffset: 0
HheadAscent: 792
HheadAOffset: 0
HheadDescent: -208
HheadDOffset: 0
OS2SubXSize: -17120
OS2SubYSize: 0
OS2SubXOff: 0
OS2SubYOff: 0
OS2SupXSize: -10672
OS2SupYSize: 0
OS2SupXOff: 26132
OS2SupYOff: 32703
OS2StrikeYSize: -10672
OS2StrikeYPos: 0
OS2Vendor: 'PfEd'
DEI: 0

StartChar: a
Encoding: 97 97 0
Width: 500
VWidth: 0
Flags: W
HStem: 0 78<157.35 322.23> 210 82<157.571 317.771> 375 83.008<150.467 327.478>
VStem: 41 84<107.618 179.147> 375 84<0 83 107.297 180.703 210 333.777>
LayerCount: 2
Fore
SplineSet
125 144 m 4
 125 108 181 78 250 78 c 4
 319 78 375 108 375 144 c 4
 375 180 319 210 250 210 c 4
 181 210 125 180 125 144 c 4
459 334 m 13
 459 0 l 29
 375 0 l 29
 375 83 l 21
 365 45 309 0 250 0 c 31
 150 0 41 47 41 147 c 31
 41 246 151 292 250 292 c 31
 308 292 361 243 375 210 c 13
 375 292 l 21
 375 335 309 375 250 375 c 31
 199 375 129 352 125 334 c 13
 51 375 l 21
 71 399 141 458.008 250 458.008 c 7
 345 458.008 459 390 459 334 c 13
EndSplineSet
Validated: 1
EndChar

StartChar: H
Encoding: 72 72 1
Width: 500
VWidth: 0
Flags: W
HStem: 0 21G<41 125 375 459> 292 83<125 375> 647 20G<41 125 375 459>
VStem: 41 84<0 292 375 667> 375 84<0 292 375 667>
LayerCount: 2
Fore
SplineSet
41 0 m 25
 41 667 l 25
 125 667 l 25
 125 375 l 17
 375 375 l 9
 375 667 l 25
 459 667 l 25
 459 0 l 25
 375 0 l 25
 375 292 l 25
 125 292 l 25
 125 0 l 25
 41 0 l 25
EndSplineSet
Validated: 1
EndChar

StartChar: A
Encoding: 65 65 2
Width: 500
VWidth: 0
Flags: W
HStem: 0 21G<41 125 375 459> 292 83<125 375> 584 83<167.906 331.734>
VStem: 41 84<0 292 375 540.63> 375 84<0 292 375 541.892>
LayerCount: 2
Fore
SplineSet
375 375 m 29
 375 458.008 l 22
 375 528.008 349 584 250 584 c 7
 152 584 125 528.008 125 458.008 c 14
 125 375 l 29
 375 375 l 29
41 0 m 29
 41 458.008 l 22
 41 558.008 97 667 250 667 c 7
 400 667 459 558.008 459 458.008 c 14
 459 0 l 29
 375 0 l 29
 375 292 l 29
 125 292 l 29
 125 0 l 29
 41 0 l 29
EndSplineSet
Validated: 1
EndChar

StartChar: B
Encoding: 66 66 3
Width: 500
VWidth: 0
Flags: W
HStem: 0 21G<41 341.5> 292 83<125 260.434> 584 83<125 258.463>
VStem: 41 84<83 292 375 584> 291 84<409.641 549.489> 375 84<115.126 231.548>
LayerCount: 2
Fore
SplineSet
125 292 m 25
 125 83 l 25
 280 83.0078 l 18
 320 83.0078 375 114.565 375 163 c 31
 375 227.137 313 292 273 292 c 10
 125 292 l 25
125 584 m 25
 125 375 l 25
 209 375 l 17
 267 375 291 431 291 493 c 1
 291 534 256 584 209 584 c 9
 125 584 l 25
41 0 m 25
 41 667 l 25
 250 667 l 17
 310 667 375 567 375 497 c 9
 375 497 367 359 313 347 c 1
 376 338 459 260.183 459 171 c 17
 458.903 84.5627 365 0 318 0 c 9
 41 0 l 25
EndSplineSet
EndChar

StartChar: C
Encoding: 67 67 4
Width: 500
VWidth: 0
Flags: W
HStem: -11 67<186.318 315.776> 610 71<186.318 311.258>
VStem: 29 81<175.986 493.754>
LayerCount: 2
Fore
SplineSet
29 334 m 31
 29 494 90 681 250 681 c 31
 350 681 459 534 459 534 c 30
 379 534 l 30
 379 534 309 610 250 610 c 31
 129 610 110 451 110 334 c 12
 110 213 129 56 250 56 c 31
 307 56 380 124 380 124 c 30
 463 124 l 30
 463 124 348 -11 250 -11 c 31
 90 -11 29 174 29 334 c 31
EndSplineSet
Validated: 1
EndChar

StartChar: D
Encoding: 68 68 5
Width: 500
VWidth: 0
Flags: W
HStem: 0 21G<41 303.539> 584 83<125 250>
VStem: 41 84<83 584> 383 86<248.272 419.393>
LayerCount: 2
Fore
SplineSet
125 584 m 25
 125 83 l 25
 250 83 l 26
 250 83 383 223 383 334 c 27
 383 444 250 584 250 584 c 26
 125 584 l 25
41 0 m 25
 41 667 l 25
 293 667 l 26
 293 667 469 481 469 334 c 27
 469 187 293 0 293 0 c 26
 41 0 l 25
EndSplineSet
Validated: 1
EndChar

StartChar: E
Encoding: 69 69 6
Width: 500
VWidth: 0
Flags: W
HStem: 0 21G<41 459> 292 83<125 375> 584 83<125 459>
VStem: 41 84<83 292 375 584>
LayerCount: 2
Fore
SplineSet
41 0 m 25
 41 667 l 25
 459 667 l 25
 459 584 l 25
 125 584 l 25
 125 375 l 25
 375 375 l 25
 375 292 l 25
 125 292 l 25
 125 83 l 25
 459 83 l 25
 459 0 l 25
 41 0 l 25
EndSplineSet
Validated: 1
EndChar

StartChar: F
Encoding: 70 70 7
Width: 500
VWidth: 0
Flags: W
HStem: 0 21G<41 125> 292 83<125 375> 584 83<125 459>
VStem: 41 84<0 292 375 584>
LayerCount: 2
Fore
SplineSet
41 667 m 25
 459 667 l 25
 459 584 l 25
 125 584 l 25
 125 375 l 25
 375 375 l 25
 375 292 l 25
 125 292 l 25
 125 0 l 25
 41 0 l 25
 41 667 l 25
EndSplineSet
Validated: 1
EndChar

StartChar: G
Encoding: 71 71 9
Width: 500
VWidth: 0
Flags: W
HStem: 0 21G<158.5 309.5> 292 83<250 375> 584 83<194.023 352.076>
VStem: 41 84<175.466 488.509> 375 84<115.175 292 523 562.287>
LayerCount: 2
Fore
SplineSet
41 334 m 27
 41 488 94 667 250 667 c 1
 389 667 459 577 459 523 c 9
 375 523 l 17
 375 562 335 584 250 584 c 1
 151 584 125 443 125 334 c 27
 125 224 147 83 251 83 c 1
 310 83 375 113 375 153 c 9
 375 292 l 25
 250 292 l 25
 250 375 l 25
 459 375 l 25
 459 153 l 17
 459 58 369 0 250 0 c 1
 67 0 41 180 41 334 c 27
EndSplineSet
Validated: 1
EndChar

StartChar: I
Encoding: 73 73 10
Width: 500
VWidth: 0
Flags: W
HStem: 0 21G<41 459> 584 83<41 209 291 459>
VStem: 209 82<83 584>
LayerCount: 2
Fore
SplineSet
41 0 m 29
 41 83 l 29
 209 83 l 29
 209 584 l 29
 41 584 l 29
 41 667 l 29
 459 667 l 29
 459 584 l 29
 291 584 l 29
 291 83 l 29
 459 83 l 29
 459 0 l 29
 41 0 l 29
EndSplineSet
Validated: 1
EndChar

StartChar: J
Encoding: 74 74 11
Width: 500
VWidth: 0
Flags: W
HStem: 0 79<162.758 250.437> 584 83<41 291 375 459>
VStem: 291 84<160 584>
LayerCount: 2
Fore
SplineSet
41 584 m 25
 41 667 l 25
 459 667 l 25
 459 584 l 25
 375 584 l 25
 375 160 l 26
 375 160 299 0 209 0 c 27
 118 0 36 158 36 158 c 26
 116 158 l 26
 116 158 161 79 209 79 c 27
 253 79 291 158 291 158 c 26
 291 584 l 25
 41 584 l 25
EndSplineSet
Validated: 1
EndChar

StartChar: K
Encoding: 75 75 12
Width: 500
VWidth: 0
Flags: W
HStem: 0 21G<41 125 357.877 459> 647 20G<41 125 357.877 459>
VStem: 41 84<0 292 375 667>
LayerCount: 2
Fore
SplineSet
41 0 m 25
 41 667 l 25
 125 667 l 25
 125 375 l 25
 375 667 l 25
 459 667 l 25
 188 334 l 25
 459 0 l 25
 375 0 l 25
 125 292 l 25
 125 0 l 25
 41 0 l 25
EndSplineSet
Validated: 1
EndChar

StartChar: L
Encoding: 76 76 13
Width: 500
VWidth: 0
Flags: W
HStem: 0 21G<41 459> 647 20G<41 125>
VStem: 41 84<83 667>
LayerCount: 2
Fore
SplineSet
41 0 m 25
 41 667 l 25
 125 667 l 25
 125 83 l 25
 459 83 l 25
 459 0 l 25
 41 0 l 25
EndSplineSet
Validated: 1
EndChar

StartChar: M
Encoding: 77 77 14
Width: 500
VWidth: 0
Flags: W
HStem: 0 21G<41 125 375 459> 647 20G<41 136.962 363.038 459>
VStem: 41 84<0 511> 375 84<0 508>
LayerCount: 2
Fore
SplineSet
41 0 m 25
 41 667 l 25
 125 667 l 25
 250 458.008 l 25
 375 667 l 25
 459 667 l 25
 459 0 l 25
 375 0 l 25
 375 508 l 25
 291 334 l 25
 209 334 l 25
 125 511 l 17
 125 0 l 9
 41 0 l 25
EndSplineSet
Validated: 1
EndChar

StartChar: h
Encoding: 104 104 15
Width: 500
VWidth: 0
Flags: W
HStem: 0 21G<41 125 375 459> 647 20G<41 125>
VStem: 41 84<0 314.062 364 667 667 667> 375 84<0 331.081>
LayerCount: 2
Fore
SplineSet
41 0 m 25
 41 667 l 25
 125 667 l 25
 125 364 l 17
 125 434 216.897 464.664 291 458.008 c 24
 372.109 450.723 459 393 459 334 c 9
 459 0 l 25
 375 0 l 25
 375 282 l 17
 375 331 310.763 375 250 375 c 27
 179.945 375 125 308 125 246 c 9
 125 0 l 25
 41 0 l 25
EndSplineSet
EndChar

StartChar: N
Encoding: 78 78 16
Width: 500
VWidth: 0
Flags: W
HStem: 0 21G<41 125 346.741 459> 647 20G<41 158.943 375 459>
VStem: 41 84<0 557> 375 84<103 667>
LayerCount: 2
Fore
SplineSet
41 0 m 29
 41 667 l 29
 151 667 l 29
 375 103 l 29
 375 667 l 29
 459 667 l 29
 459 0 l 29
 355 0 l 29
 125 557 l 29
 125 0 l 29
 41 0 l 29
EndSplineSet
Validated: 1
EndChar

StartChar: O
Encoding: 79 79 17
Width: 500
VWidth: 0
Flags: W
HStem: 0 21G<105 395> 584 83<159.843 340.157>
VStem: 41 84<121.414 546.361> 375 84<121.414 546.361>
LayerCount: 2
Fore
SplineSet
291 584 m 14
 209 584 l 22
 169 584 125 548.008 125 458.008 c 14
 125 210 l 22
 125 120 169 83 209 83 c 14
 291 83 l 22
 331 83 375 120 375 210 c 14
 375 458.008 l 22
 375 548.008 331 584 291 584 c 14
41 210 m 14
 41 458.008 l 22
 41 548.008 85 667 125 667 c 14
 375 667 l 22
 415 667 459 548.008 459 458.008 c 14
 459 210 l 22
 459 120 415 0 375 0 c 14
 125 0 l 22
 85 0 41 120 41 210 c 14
EndSplineSet
Validated: 1
EndChar

StartChar: P
Encoding: 80 80 18
Width: 500
VWidth: 0
Flags: W
HStem: 0 21G<41 125> 292 84<125 291> 584 83<125 291>
VStem: 41 84<0 292 376 584> 379 80<443.849 539.203>
LayerCount: 2
Fore
SplineSet
125 584 m 25
 125 376 l 25
 291 376 l 26
 291 376 379 439 379 498 c 27
 379 546 291 584 291 584 c 26
 125 584 l 25
41 0 m 25
 41 667 l 25
 291 667 l 26
 291 667 459 590 459 497 c 27
 459 393 291 292 291 292 c 26
 125 292 l 25
 125 0 l 25
 41 0 l 25
EndSplineSet
Validated: 1
EndChar

StartChar: Q
Encoding: 81 81 19
Width: 500
VWidth: 0
Flags: W
HStem: 83 21G<209 278.571> 584 83<159.843 340.157>
VStem: 41 84<121.414 546.354> 375 84<122.356 546.354>
LayerCount: 2
Fore
SplineSet
250 153 m 1
 332 153 l 1
 352 118 l 1
 366 139 375 169 375 210 c 2
 375 458 l 2
 375 548 331 584 291 584 c 2
 209 584 l 2
 169 584 125 548 125 458 c 2
 125 210 l 2
 125 120 169 83 209 83 c 2
 290 83 l 1
 250 153 l 1
41 210 m 2
 41 458 l 2
 41 548 85 667 125 667 c 2
 375 667 l 2
 415 667 459 548 459 458 c 2
 459 210 l 2
 459 144 436 62 407 23 c 1
 459 -66 l 1
 375 -66 l 1
 337 0 l 1
 125 0 l 2
 85 0 41 120 41 210 c 2
EndSplineSet
EndChar

StartChar: R
Encoding: 82 82 20
Width: 500
VWidth: 0
Flags: W
HStem: 0 21G<41 125 363.63 459> 292 83<125 209> 584 83<125 291>
VStem: 41 84<0 292 375 584> 379 80<443.91 539.203>
LayerCount: 2
Fore
SplineSet
125 584 m 25
 125 375 l 25
 291 375 l 26
 291 375 379 439 379 498 c 27
 379 546 291 584 291 584 c 26
 125 584 l 25
125 0 m 25
 41 0 l 25
 41 667 l 25
 291 667 l 26
 291 667 459 590 459 497 c 27
 459 394 291 292 291 292 c 25
 459 0 l 25
 375 0 l 25
 209 292 l 25
 125 292 l 25
 125 0 l 25
EndSplineSet
Validated: 1
EndChar

StartChar: T
Encoding: 84 84 21
Width: 500
VWidth: 0
Flags: W
HStem: 0 21G<209 291> 584 83<41 209 291 459>
VStem: 209 82<0 584>
LayerCount: 2
Fore
SplineSet
41 584 m 25
 41 667 l 25
 459 667 l 25
 459 584 l 25
 291 584 l 25
 291 0 l 25
 209 0 l 25
 209 584 l 25
 41 584 l 25
EndSplineSet
Validated: 1
EndChar

StartChar: U
Encoding: 85 85 22
Width: 500
VWidth: 0
Flags: W
HStem: 0 21G<192 308> 647 20G<41 125 375 459>
VStem: 41 84<138.383 667> 375 84<143.46 667>
LayerCount: 2
Fore
SplineSet
251 83 m 24
 275 83 293 87 311 98 c 0
 327 108 341 122 352 138 c 0
 360 148 366 160 370 172 c 0
 374 184 375 197 375 210 c 2
 375 667 l 1
 459 667 l 1
 459 210 l 2
 459 83 366 0 250 0 c 27
 134 0 41 83 41 210 c 2
 41 667 l 1
 125 667 l 1
 125 210 l 2
 125 198 125 186 128 174 c 0
 131 163 136 152 142 142 c 0
 153 124 168 108 187 98 c 0
 187 98 225 83 251 83 c 24
EndSplineSet
Validated: 1
EndChar

StartChar: Z
Encoding: 90 90 23
Width: 500
VWidth: 0
Flags: W
HStem: 0 21G<41 459> 584 83<41 375>
LayerCount: 2
Fore
SplineSet
459 83 m 1
 459 0 l 1
 41 0 l 9
 41 83 l 25
 375 584 l 25
 41 584 l 25
 41 667 l 25
 459 667 l 25
 459 584 l 25
 125 83 l 25
 459 83 l 1
EndSplineSet
Validated: 1
EndChar

StartChar: exclam
Encoding: 33 33 56
Width: 500
VWidth: 0
Flags: W
HStem: -83 83<208.984 291.016> 647 20G<208.984 291>
VStem: 208.984 82.0156<-83 0 126.961 667>
LayerCount: 2
Fore
SplineSet
208.984 0 m 1
 291.016 0 l 1
 291.016 -83 l 1
 208.984 -83 l 1
 208.984 0 l 1
208.984 667 m 1
 291 667 l 1
 291 126.961 l 1
 208.984 126.961 l 1
 208.984 667 l 1
EndSplineSet
EndChar

StartChar: quotedbl
Encoding: 34 34 57
Width: 500
VWidth: 0
Flags: W
HStem: 521 145.984<125.016 208.984 291.016 374.984>
VStem: 125.016 83.984<521 666.984> 291.016 83.984<521 666.984>
LayerCount: 2
Fore
SplineSet
291 666.984 m 1
 374.984 666.984 l 1
 375 521 l 5
 291.016 521 l 5
 291 666.984 l 1
125 666.984 m 1
 208.984 666.984 l 1
 209 521 l 5
 125.016 521 l 5
 125 666.984 l 1
EndSplineSet
Validated: 1
EndChar

StartChar: numbersign
Encoding: 35 35 58
Width: 500
VWidth: 0
Flags: W
HStem: 83 21G<125 209 291 375> 210 82<41 125 209 291 375 459> 375 83<41 125 209 291 375 459>
VStem: 125 84<83 210 292 375 458 584> 291 84<84 210 292 375 458 584>
LayerCount: 2
Fore
SplineSet
209 83 m 25
 125 83 l 25
 125 210 l 25
 41 210 l 25
 41 292 l 25
 125 292 l 25
 125 375 l 25
 41 375 l 25
 41 458 l 25
 125 458 l 25
 125 584 l 25
 209 584 l 25
 209 458 l 25
 291 458 l 25
 291 584 l 25
 375 584 l 25
 375 458 l 25
 459 458 l 25
 459 375 l 25
 375 375 l 25
 375 292 l 25
 459 292 l 25
 459 210 l 25
 375 210 l 25
 375 83 l 25
 291 84 l 25
 291 210 l 25
 209 210 l 25
 209 83 l 25
209 375 m 25
 209 292 l 25
 291 292 l 25
 291 375 l 25
 209 375 l 25
EndSplineSet
Validated: 1
EndChar

StartChar: dollar
Encoding: 36 36 59
Width: 500
VWidth: 0
Flags: W
HStem: 0 21G<208.984 291.016> 84.9399 58.8111<150.963 208.984 291.016 345.61> 294.295 80.617<139.495 208.984 291.016 339.087> 517.929 63.257<164.835 208.984 291.016 349.022> 647 20G<208.984 291.016>
VStem: 41 84<168.501 209.961 390.818 481.365> 208.984 82.032<0 84.9399 144.391 288.709 374.912 517.929 581.338 667> 374.984 84<171.092 262.954 458.008 492.038>
LayerCount: 2
Fore
SplineSet
208.984 667 m 1
 291.016 667 l 1
 291.016 581.338 l 1
 375.088 570.797 458.984 529.063 458.984 458.008 c 1
 374.984 458.008 l 1
 374.984 488.402 334.545 510.131 291.016 518.815 c 1
 291.016 371.049 l 1
 378.725 358.39 458.984 305.271 458.984 217 c 0
 458.984 133.67 375.896 94.5178 291.016 85.2258 c 1
 291.016 0 l 1
 208.984 0 l 1
 208.984 84.9399 l 1
 124.878 93.0213 41.0134 127.516 41 209.961 c 1
 125 209.961 l 1
 125 168.101 165.214 150.001 208.984 143.751 c 1
 208.984 294.295 l 1
 123.869 303.891 41 344.257 41 428 c 0
 41 516.067 121.408 568.832 208.984 581.186 c 1
 208.984 667 l 1
208.984 374.912 m 1
 208.984 517.929 l 1
 163.27 506.389 125 475.435 125 428 c 0
 125 387.886 166.024 377.562 208.984 374.912 c 1
291.016 288.709 m 1
 291.016 144.391 l 1
 335.236 152.017 374.984 173.364 374.984 217 c 0
 374.984 260.455 335.168 281.3 291.016 288.709 c 1
EndSplineSet
Validated: 1
EndChar

StartChar: percent
Encoding: 37 37 60
Width: 500
VWidth: 0
Flags: W
HStem: 0 49.1611<311.324 398.306> 161.161 47.962<311.324 398.306> 457.839 49.161<101.694 188.676> 619 47.962<101.694 188.676>
VStem: 41.0195 47.9805<519.166 606.235> 201 48.72<519.166 606.235> 250.649 47.981<61.3269 148.396> 410.63 48.72<61.3269 148.396>
LayerCount: 2
Fore
SplineSet
298.63 105.161 m 0
 298.63 74.249 323.718 49.1611 354.63 49.1611 c 0
 385.542 49.1611 410.63 74.249 410.63 105.161 c 0
 410.63 136.073 385.542 161.161 354.63 161.161 c 0
 323.718 161.161 298.63 136.073 298.63 105.161 c 0
250.649 104.562 m 0
 250.649 162.279 297.398 209.123 355 209.123 c 0
 412.602 209.123 459.35 162.279 459.35 104.562 c 0
 459.35 46.8438 412.602 0 355 0 c 0
 297.398 0 250.649 46.8438 250.649 104.562 c 0
89 563 m 4
 89 532.088 114.088 507 145 507 c 4
 175.912 507 201 532.088 201 563 c 4
 201 593.912 175.912 619 145 619 c 4
 114.088 619 89 593.912 89 563 c 4
41.0195 562.4 m 4
 41.0195 620.118 87.7686 666.962 145.37 666.962 c 4
 202.972 666.962 249.72 620.118 249.72 562.4 c 4
 249.72 504.683 202.972 457.839 145.37 457.839 c 4
 87.7686 457.839 41.0195 504.683 41.0195 562.4 c 4
125 0 m 25
 41 0 l 25
 375 667 l 25
 459 667 l 25
 125 0 l 25
EndSplineSet
Validated: 1
EndChar

StartChar: ampersand
Encoding: 38 38 61
Width: 500
VWidth: 0
Flags: W
HStem: 0 21G<156.5 238.5 365.588 459> 600 67<160.101 234.603>
VStem: 41 63<133.983 309.535> 86 63<463.328 590.331> 250 64<480.326 586.062> 392 67<136.633 210>
LayerCount: 2
Fore
SplineSet
186 443 m 1xdc
 211 463 250 489 250 531 c 27
 250 565 229 600 195 600 c 27
 165 600 149 568 149 538 c 27
 149 498 165 467 186 443 c 1xdc
171 361 m 17
 117 326 104 261 104 210 c 3xec
 104 160 136 83 209 83 c 1
 275 83 278 87 315 106 c 9
 171 361 l 17
392 210 m 9
 459 210 l 17
 459 158 445 119 408 83 c 9
 459 0 l 25
 375 0 l 25
 351 51 l 17
 316 26 268 0 209 0 c 27
 104 0 41 105 41 210 c 27xec
 41 295 64 351 137 405 c 1
 107 449 86 486 86 543 c 27xdc
 86 608 133 667 198 667 c 27
 266 667 314 605 314 537 c 27
 314 469 253 415 221 391 c 9
 370 135 l 17
 387 148 392 180 392 210 c 9
EndSplineSet
EndChar

StartChar: quotesingle
Encoding: 39 39 62
Width: 500
VWidth: 0
Flags: W
HStem: 519 147.984<209.031 290.984>
VStem: 209.031 81.985<519 666.984>
LayerCount: 2
Fore
SplineSet
209 666.984 m 1
 290.984 666.984 l 1
 291.016 519 l 5
 209.031 519 l 5
 209 666.984 l 1
EndSplineSet
Validated: 1
EndChar

StartChar: parenleft
Encoding: 40 40 63
Width: 500
VWidth: 0
Flags: W
HStem: 0 21G<253.508 375> 647 20G<270.508 375>
VStem: 124.984 84<214.084 442.232>
LayerCount: 2
Fore
SplineSet
291.016 667 m 9
 375 667 l 17
 291.016 591 208.984 479.114 208.984 334 c 27
 208.984 188.536 298 78 375 0 c 9
 291.016 0 l 21
 216 83.0078 124.984 188.533 124.984 334 c 27
 124.984 479.117 250 629 291.016 667 c 9
EndSplineSet
Validated: 1
EndChar

StartChar: asterisk
Encoding: 42 42 65
Width: 500
VWidth: 0
Flags: W
VStem: 208.984 82.032<130 292 375 539>
LayerCount: 2
Fore
SplineSet
208.984 375 m 25
 208.984 539 l 25
 291.016 539 l 25
 291.016 375 l 25
 375 458 l 25
 458.984 446 l 25
 349 333.984 l 25
 458.984 222 l 25
 375 209.961 l 25
 291.016 292 l 25
 291.016 130 l 25
 208.984 130 l 25
 208.984 292 l 25
 125 209.961 l 25
 41.0156 221 l 25
 157 333.984 l 25
 41.0156 447 l 25
 125 458 l 25
 208.984 375 l 25
EndSplineSet
EndChar

StartChar: plus
Encoding: 43 43 66
Width: 500
VWidth: 0
Flags: W
HStem: 291.992 83<41 208.984 291.016 459>
VStem: 208.984 82.0316<127 292 375 537>
LayerCount: 2
Fore
SplineSet
41 291.992 m 25
 41 374.992 l 25
 208.984 375 l 25
 208.984 537 l 25
 291.016 537 l 25
 291.016 375 l 25
 459 374.992 l 25
 459 291.992 l 25
 291.016 292 l 25
 291.016 127 l 25
 209.016 127 l 25
 208.984 292 l 25
 41 291.992 l 25
EndSplineSet
Validated: 1
EndChar

StartChar: comma
Encoding: 44 44 67
Width: 500
VWidth: 0
Flags: W
HStem: 0 125<189 250>
VStem: 189 139<0 125> 250 78<-100.816 0>
LayerCount: 2
Fore
SplineSet
250 0 m 5xa0
 189 0 l 5
 189 125 l 5
 328 125 l 5
 328 0 l 5xc0
 328 -83 304 -145 209 -166 c 5
 234 -131 250 -63 250 0 c 5xa0
EndSplineSet
EndChar

StartChar: hyphen
Encoding: 45 45 68
Width: 500
VWidth: 0
Flags: W
HStem: 292 83<125 375>
VStem: 125 250<292 375>
LayerCount: 2
Fore
SplineSet
125 375 m 5
 375 375 l 5
 375 292 l 5
 125 292 l 5
 125 375 l 5
EndSplineSet
Validated: 1
EndChar

StartChar: period
Encoding: 46 46 69
Width: 500
VWidth: 0
Flags: W
HStem: 0 127<187 314>
VStem: 187 127<0 127>
LayerCount: 2
Fore
SplineSet
187 0 m 5
 187 127 l 5
 314 127 l 5
 314 0 l 5
 187 0 l 5
EndSplineSet
Validated: 1
EndChar

StartChar: slash
Encoding: 47 47 70
Width: 500
VWidth: 0
Flags: HW
HStem: 0 21G<41 135.015> 647 20G<364.985 459>
LayerCount: 2
Fore
SplineSet
125 -83 m 29
 41 -83 l 29
 375 667 l 29
 459 667 l 29
 125 -83 l 29
EndSplineSet
EndChar

StartChar: zero
Encoding: 48 48 71
Width: 500
VWidth: 0
Flags: W
HStem: 0 21G<192.5 307.5> 292 83<209 291> 584 83<200.753 299.247>
VStem: 41 84<195.122 472.633> 209 82<292 375> 375 84<195.122 472.633>
CounterMasks: 1 1c
LayerCount: 2
Fore
SplineSet
209 375 m 1
 291 375 l 1
 291 292 l 1
 209 292 l 1
 209 375 l 1
125 334 m 0
 125 195 181 83 250 83 c 0
 319 83 375 195 375 334 c 0
 375 473 319 584 250 584 c 0
 181 584 125 473 125 334 c 0
41 334 m 0
 41 518 135 667 250 667 c 0
 365 667 459 518 459 334 c 0
 459 150 365 0 250 0 c 0
 135 0 41 150 41 334 c 0
EndSplineSet
Validated: 1
EndChar

StartChar: one
Encoding: 49 49 72
Width: 500
VWidth: 0
Flags: W
HStem: 0 21G<209 291> 647 20G<192.923 291>
VStem: 209 82<0 560>
LayerCount: 2
Fore
SplineSet
125 458.008 m 25
 41 458.008 l 25
 209 667 l 25
 291 667 l 25
 291 0 l 25
 209 0 l 25
 209 560 l 25
 125 458.008 l 25
EndSplineSet
Validated: 1
EndChar

StartChar: two
Encoding: 50 50 73
Width: 500
VWidth: 0
Flags: W
HStem: 0 21G<41 459> 584 83<148.549 318.37>
VStem: 41 84<521 560.947> 375 84<379.576 526.535>
LayerCount: 2
Fore
SplineSet
125 521 m 9
 41 521 l 17
 41 612 151 667 250 667 c 27
 365 667 459 573.008 459 458.008 c 3
 459 302.008 336 292 125 83 c 9
 459 83 l 25
 459 0 l 25
 41 0 l 25
 41 106 l 17
 250 315 375 326.008 375 458.008 c 3
 375 527.008 319 584 250 584 c 27
 195 584 125 573 125 521 c 9
EndSplineSet
Validated: 1
EndChar

StartChar: three
Encoding: 51 51 74
Width: 500
VWidth: 0
Flags: W
HStem: 0 21G<189.5 310.5> 584 83<125 375>
VStem: 41 84<132.023 210> 375 84<147.111 317.627>
LayerCount: 2
Fore
SplineSet
125 584 m 25
 41 667 l 25
 459 667 l 25
 459 584 l 25
 291 458.008 l 17
 368 458.008 459 340 459 229 c 27
 459 108 371 0 250 0 c 27
 129 0 41 117 41 229 c 9
 125 210 l 17
 125 124 181 83 250 83 c 27
 325 83 375 154 375 229 c 27
 375 315 341 375 209 375 c 9
 209 458.008 l 25
 375 584 l 25
 125 584 l 25
EndSplineSet
Validated: 1
EndChar

StartChar: four
Encoding: 52 52 75
Width: 500
VWidth: 0
Flags: W
HStem: 0 21G<250 332> 210 82<125 250 332 459> 647 20G<159.333 250>
VStem: 250 82<0 210 292 458.008>
LayerCount: 2
Fore
SplineSet
166 667 m 25
 250 667 l 25
 125 292 l 25
 250 292 l 25
 250 458.008 l 25
 332 458.008 l 25
 332 292 l 25
 459 292 l 25
 459 210 l 25
 332 210 l 25
 332 0 l 25
 250 0 l 25
 250 210 l 25
 41 210 l 25
 41 292 l 25
 166 667 l 25
EndSplineSet
Validated: 1
EndChar

StartChar: five
Encoding: 53 53 76
Width: 500
VWidth: 0
Flags: W
HStem: 0 21G<192 310.5> 375 83.008<168.473 313.031> 584 83<184 459>
VStem: 41 84<139.055 210> 375 84<140.613 302.956>
LayerCount: 2
Fore
SplineSet
125 667 m 25
 459 667 l 25
 459 584 l 25
 184 584 l 25
 139 418 l 17
 184 452 230 458.008 291 458.008 c 27
 402 458.008 459 340 459 229 c 27
 459 108 371 0 250 0 c 27
 134 0 41 83 41 210 c 9
 125 210 l 17
 125 140 181 83 250 83 c 27
 319 83 375 140 375 210 c 27
 375 291 331 375 250 375 c 27
 167 375 93 360 41 334 c 9
 41 375 l 25
 125 667 l 25
EndSplineSet
Validated: 1
EndChar

StartChar: six
Encoding: 54 54 77
Width: 500
VWidth: 0
Flags: W
HStem: 0 21G<118.5 379> 292 83<152.676 347.324> 584 83<152.444 362.412>
VStem: 41 84<102.481 265.418 292 555.625> 375 84<103.491 145 145 265.409 550 571.68>
LayerCount: 2
Fore
SplineSet
209 292 m 27
 163 292 125 256 125 210 c 27
 125 182 125 167 125 139 c 27
 125 100 170 83 209 83 c 27
 241 83 259 83 291 83 c 27
 332 83 375 104 375 145 c 27
 375 170 375 185 375 210 c 27
 375 256 337 292 291 292 c 27
 259 292 241 292 209 292 c 27
160 667 m 27
 229 667 267 667 336 667 c 27
 402 667 444 608 459 550 c 9
 375 519 l 17
 375 570 353 584 291 584 c 3
 259 584 241 584 209 584 c 3
 132 584 125 517.008 125 458.008 c 27
 125 393.008 125 357 125 292 c 17
 125 367 163 375 209 375 c 27
 263 375 293 375 347 375 c 27
 413 375 459 313 459 247 c 27
 459 196 459 166 459 115 c 27
 459 53 410 0 348 0 c 27
 271 0 227 0 150 0 c 27
 87 0 41 57 41 120 c 27
 41 266 41 348 41 494 c 27
 41 576 78 667 160 667 c 27
EndSplineSet
Validated: 1
EndChar

StartChar: seven
Encoding: 55 55 78
Width: 500
VWidth: 0
Flags: HW
HStem: 0 21G<41 136.438> 292 83<84 208 339 459> 584 83<41 375>
LayerCount: 2
Fore
SplineSet
375 584 m 1
 41 584 l 1
 41 667 l 1
 459 667 l 1
 459 584 l 1
 339 375 l 1
 459 375 l 1
 459 292 l 1
 292 292 l 1
 125 0 l 5
 28 0 l 1
 208 292 l 1
 84 292 l 1
 84 375 l 1
 255 375 l 1
 375 584 l 1
EndSplineSet
EndChar

StartChar: eight
Encoding: 56 56 79
Width: 500
VWidth: 0
Flags: W
HStem: 0 21G<192.231 307.769> 333.984 85.016<192.321 303.37> 584 83<193.327 306.218>
VStem: 41 84<140.89 280.561> 86 81<443.507 560.686> 329 84<443.719 562.224> 375 84<140.89 279.096>
LayerCount: 2
Fore
SplineSet
125 209.961 m 0xf2
 125 139.883 181 83.0078 250 83.0078 c 0
 319 83.0078 375 139.883 375 209.961 c 0
 375 280.039 318 333.984 249 333.984 c 0
 180 333.984 125 280.039 125 209.961 c 0xf2
167 503 m 0xec
 167 456 195 419 250 419 c 0
 305 419 330 464 329 506 c 0
 327.857 553.986 299 584.016 250 584 c 0
 200 583.984 167 552 167 503 c 0xec
250 667 m 27
 340.455 667 413 592.455 413 502 c 27xec
 413 446.883 382 395 351 375 c 1
 400 340 459 286.883 459 209.961 c 27
 459 94.4229 365.538 0 250 0 c 27
 134.462 0 41 94.4229 41 209.961 c 27xf2
 41 286.459 112 341 147 375 c 1
 109 393 86 445.755 86 500 c 27
 86 591.284 158.716 667 250 667 c 27
EndSplineSet
EndChar

StartChar: colon
Encoding: 58 58 81
Width: 500
VWidth: 0
Flags: W
HStem: -42 166<196.736 303.264> 292 166<196.736 303.264>
VStem: 171 158<-16.327 98.327 317.673 432.327>
LayerCount: 2
Fore
SplineSet
171 375 m 0
 171 421 206 458 250 458 c 0
 294 458 329 421 329 375 c 0
 329 329 294 292 250 292 c 0
 206 292 171 329 171 375 c 0
171 41 m 0
 171 87 206 124 250 124 c 0
 294 124 329 87 329 41 c 0
 329 -5 294 -42 250 -42 c 0
 206 -42 171 -5 171 41 c 0
EndSplineSet
EndChar

StartChar: semicolon
Encoding: 59 59 82
Width: 500
VWidth: 0
Flags: W
HStem: 0 147<171 250> 251 166<196.736 303.264>
VStem: 171 158<0 147 276.673 391.327> 250 78<-100.816 0>
LayerCount: 2
Fore
SplineSet
250 0 m 1xd0
 171 0 l 1
 171 147 l 1xe0
 328 147 l 1
 328 0 l 1
 328 -83 304 -145 209 -166 c 1
 234 -131 250 -63 250 0 c 1xd0
171 334 m 0
 171 380 206 417 250 417 c 0xd0
 294 417 329 380 329 334 c 0xe0
 329 288 294 251 250 251 c 0xd0
 206 251 171 288 171 334 c 0
EndSplineSet
Validated: 1
EndChar

StartChar: less
Encoding: 60 60 83
Width: 500
VWidth: 0
Flags: W
HStem: 83 21G<343.038 459>
LayerCount: 2
Fore
SplineSet
41 375 m 25
 375 584 l 25
 459 584 l 25
 459 534 l 25
 125 334 l 25
 459 131 l 25
 459 83 l 25
 375 83 l 25
 41 292 l 25
 41 375 l 25
EndSplineSet
Validated: 1
EndChar

StartChar: equal
Encoding: 61 61 84
Width: 500
VWidth: 0
Flags: W
HStem: 210 82<81 419> 375 83.008<81 419>
LayerCount: 2
Fore
SplineSet
81 458.008 m 5
 419 458.008 l 5
 419 375 l 5
 81 375 l 5
 81 458.008 l 5
81 292 m 5
 419 292 l 5
 419 210 l 5
 81 210 l 5
 81 292 l 5
EndSplineSet
Validated: 1
EndChar

StartChar: question
Encoding: 63 63 86
Width: 500
VWidth: 0
Flags: W
HStem: 0 21G<208.984 291.016> 63 20G<208.984 291.016> 583.984 83.016<178.203 316.972>
VStem: 41 84<458.008 530.821> 208.984 82.0312<0 83 176 271.772> 375 84<386.122 526.629>
CounterMasks: 1 1c
LayerCount: 2
Fore
SplineSet
208.984 0 m 1
 208.984 83 l 1
 291.016 83 l 1
 291.016 0 l 1
 208.984 0 l 1
41 458.008 m 17
 41.0156 544 134.729 667 250 667 c 27
 365.271 667 459 573.278 459 458.008 c 3
 459 384 399 340 354 308 c 0
 320.721 284.335 291.016 272 291.016 176 c 9
 209.016 176 l 17
 208.998 280.209 265.779 329.143 313 358 c 0
 349 380 375 383 375 458 c 3
 375 527.215 319.215 583.984 250 583.984 c 27
 180.785 583.984 125 533 125 458 c 9
 41 458.008 l 17
EndSplineSet
Validated: 33
EndChar

StartChar: at
Encoding: 64 64 87
Width: 500
VWidth: 0
Flags: W
HStem: 0 21G<209.662 458.988> 187 62<287.814 358.177> 401.968 56.032<287.071 356.798> 583.984 83.016<190.989 314.882>
VStem: 41 84<204.442 491.813> 208.984 60.016<265.809 384.017> 375 84<281.298 446.89 443.006 507.481>
LayerCount: 2
Fore
SplineSet
269 324 m 0
 269 286.473 293.744 249 323 249 c 0
 352.256 249 375 286.473 375 324 c 0
 375 361.527 351.256 401.968 322 401.968 c 0
 292.744 401.968 269 361.527 269 324 c 0
459 83.0078 m 25
 458.984 0 l 25
 393.477 0 356.523 0 291.016 0 c 27
 128.309 0 41 171.277 41 333.984 c 27
 41 487.319 96.665 667 250 667 c 27
 403.335 667 459 523 459 333.984 c 3
 459 285.615 458.99 244.324 458.984 187 c 25
 426.225 187 407.744 187 374.984 187 c 27
 288.509 187 208.984 220 208.984 334 c 3
 208.984 391.984 246 458 291.016 458 c 3
 328.55 458 369 446 375 411 c 1
 375 506 333.234 583.984 250 583.984 c 27
 140.991 583.984 125 442.992 125 333.984 c 27
 125 216.627 173.658 83.0078 291.016 83.0078 c 27
 356.529 83.0078 393.486 83.0078 459 83.0078 c 25
EndSplineSet
Validated: 1
EndChar

StartChar: S
Encoding: 83 83 88
Width: 500
VWidth: 0
Flags: W
HStem: 0 21G<197 308> 292 82<164.371 335.629> 584 83<181.752 343.212>
VStem: 41 84<114.663 172 408.528 526.754> 375 84<140.847 256.816 521 554.71>
LayerCount: 2
Fore
SplineSet
250 667 m 31
 349 667 459 604 459 521 c 13
 375 521 l 21
 375 561 305 584 251 584 c 31
 181 584 125 528.008 125 458.008 c 31
 125 399.008 191 374 250 374 c 31
 354 374 459 314 459 210 c 31
 459 94 366 0 250 0 c 31
 144 0 41 34 41 172 c 13
 125 172 l 21
 125 99 190 83 250 83 c 31
 319 83 375 140 375 210 c 31
 375 268 308 292 250 292 c 31
 146 292 41 354.008 41 458.008 c 31
 41 573.008 135 667 250 667 c 31
EndSplineSet
Validated: 1
EndChar

StartChar: V
Encoding: 86 86 89
Width: 500
VWidth: 0
Flags: W
HStem: 0 21G<203.963 296.037> 647 20G<41 129.579 370.421 459>
LayerCount: 2
Fore
SplineSet
41 667 m 29
 125 667 l 29
 250 121 l 29
 375 667 l 29
 459 667 l 29
 291 0 l 29
 209 0 l 29
 41 667 l 29
EndSplineSet
Validated: 1
EndChar

StartChar: W
Encoding: 87 87 90
Width: 500
VWidth: 0
Flags: W
HStem: 0 21G<117 218.88 281.12 382.905> 647 20G<41 125 375 458>
VStem: 41 84<210 667> 209 82<210 292> 375 83<210 667>
LayerCount: 2
Fore
SplineSet
41 210 m 25
 41 667 l 25
 125 667 l 25
 125 210 l 25
 166 104 l 25
 209 210 l 25
 209 292 l 25
 291 292 l 25
 291 210 l 25
 332 104 l 25
 375 210 l 25
 375 667 l 25
 458 667 l 25
 458 210 l 25
 375 0 l 25
 291 0 l 25
 250 83 l 25
 209 0 l 25
 125 0 l 25
 41 210 l 25
EndSplineSet
Validated: 1
EndChar

StartChar: X
Encoding: 88 88 91
Width: 500
VWidth: 0
Flags: HW
HStem: 0 21G<41 136.905 363.095 459> 647 19.992G<41 136.962 363.038 459>
LayerCount: 2
Fore
SplineSet
41 666.992 m 1
 125 666.992 l 1
 249.997 417.363 l 1
 375 666.992 l 1
 458.984 666.992 l 1
 291.016 334 l 1
 458.984 0 l 1
 375 0 l 1
 249.997 249.629 l 1
 125 0 l 1
 41 0 l 1
 208.984 334 l 1
 41 666.992 l 1
EndSplineSet
EndChar

StartChar: Y
Encoding: 89 89 92
Width: 500
VWidth: 0
Flags: W
HStem: 0 21G<209 291> 647 20G<41 133.562 366.438 459>
VStem: 209 82<0 292>
LayerCount: 2
Fore
SplineSet
41 667 m 25
 125 667 l 25
 250 375 l 25
 375 667 l 25
 459 667 l 25
 291 292 l 25
 291 0 l 25
 209 0 l 25
 209 292 l 25
 41 667 l 25
EndSplineSet
Validated: 1
EndChar

StartChar: bracketleft
Encoding: 91 91 93
Width: 500
VWidth: 0
Flags: W
HStem: -83 83.0078<291.016 419> 666.984 83.008<291.016 419>
VStem: 208.984 82.032<0.0078125 666.984> 208.984 210.016<-83 0 667 749.992>
LayerCount: 2
Fore
SplineSet
208.984 -83 m 29xd0
 208.969 749.992 l 29
 419 750 l 29
 419 667 l 29xd0
 291.016 666.984 l 29
 291.016 0.0078125 l 29xe0
 419 0 l 29
 419 -83 l 29
 208.984 -83 l 29xd0
EndSplineSet
EndChar

StartChar: backslash
Encoding: 92 92 94
Width: 500
VWidth: 0
Flags: HW
HStem: 0 21G<375 448.985> 647 20G<51.015 125>
LayerCount: 2
Fore
SplineSet
375 -83 m 25
 459 -83 l 25
 125 667 l 25
 41 667 l 25
 375 -83 l 25
EndSplineSet
EndChar

StartChar: bracketright
Encoding: 93 93 95
Width: 500
VWidth: 0
Flags: W
HStem: -83 83<81 208.984> 667 83<81 208.984>
VStem: 81 210.016<-83 0 667 749.992> 208.984 82.0312<0.0078125 666.984>
LayerCount: 2
Fore
SplineSet
291.016 -83 m 29xe0
 81 -83 l 29
 81 0 l 29xe0
 208.984 0.0078125 l 29
 208.984 666.984 l 29xd0
 81 667 l 29
 81 750 l 29
 291.031 749.992 l 29
 291.016 -83 l 29xe0
EndSplineSet
EndChar

StartChar: asciicircum
Encoding: 94 94 96
Width: 500
VWidth: 0
Flags: W
HStem: 458.008 208.992
LayerCount: 2
Fore
SplineSet
41 458.008 m 25
 208.984 667 l 25
 291.016 667 l 25
 459 458.008 l 25
 375 458 l 25
 250 609.984 l 29
 125 458 l 25
 41 458.008 l 25
EndSplineSet
Validated: 1
EndChar

StartChar: underscore
Encoding: 95 95 97
Width: 500
VWidth: 0
Flags: W
HStem: -83 83<41 459>
LayerCount: 2
Fore
SplineSet
41 0 m 5
 459 0 l 5
 459 -83 l 5
 41 -83 l 5
 41 0 l 5
EndSplineSet
Validated: 1
EndChar

StartChar: grave
Encoding: 96 96 98
Width: 500
VWidth: 0
Flags: W
HStem: 458 209
VStem: 125 250
LayerCount: 2
Fore
SplineSet
125 667 m 13
 291.016 667 l 21
 291.016 566 l 5
 375 458 l 5
 291.016 458 l 5
 125 667 l 13
EndSplineSet
EndChar

StartChar: b
Encoding: 98 98 99
Width: 500
VWidth: 0
Flags: W
HStem: 0 81<185.148 313.582> 375 83.008<185.08 315.439> 647 20G<41 125>
VStem: 41 84<0 83 146.576 310.791 375 667 667 667> 375 84<147.061 309.07>
LayerCount: 2
Fore
SplineSet
125 229 m 0
 125 148 181 81 250 81 c 0
 319 81 375 148 375 229 c 0
 375 310 319 375 250 375 c 0
 181 375 125 310 125 229 c 0
125 0 m 25
 41 0 l 25
 41 667 l 25
 125 667 l 25
 125 375 l 17
 125 424 192 458.008 250 458.008 c 27
 376 458.008 459 336 459 210 c 27
 459 94 366 0 250 0 c 27
 191 0 151 39 125 83 c 9
 125 0 l 25
EndSplineSet
Validated: 1
EndChar

StartChar: c
Encoding: 99 99 100
Width: 500
VWidth: 0
Flags: W
HStem: 0 21G<189.5 316> 374 84.008<185.455 326.924>
VStem: 41 84<147.111 310.721> 375 84<119.237 154 292 332.592>
LayerCount: 2
Fore
SplineSet
459 292 m 9
 375 292 l 17
 375 334 308 374 250 374 c 27
 175 374 125 304 125 229 c 27
 125 154 175 83 250 83 c 27
 306 83 375 115 375 154 c 9
 459 154 l 17
 459 69 382 0 250 0 c 3
 129 0 41 108 41 229 c 27
 41 350 129 458.008 250 458.008 c 27
 354 458.008 459 381 459 292 c 9
EndSplineSet
Validated: 1
EndChar

StartChar: d
Encoding: 100 100 101
Width: 500
VWidth: 0
Flags: HW
HStem: 0 81<186.402 314.836> 375 83.0078<184.546 314.905> 647 20G<374.984 458.984>
VStem: 40.9844 84<147.061 309.07> 374.984 84<0 83 146.576 310.791 375 667>
LayerCount: 2
Fore
SplineSet
374.984 229 m 0
 374.984 310 318.984 375 249.984 375 c 0
 180.984 375 124.984 310 124.984 229 c 0
 124.984 148 180.984 81 249.984 81 c 0
 318.984 81 374.984 148 374.984 229 c 0
374.984 0 m 25
 374.984 83 l 17
 348.984 39 308.984 0 249.984 0 c 27
 133.984 0 40.9844 94 40.9844 210 c 27
 40.9844 336 123.984 458.008 249.984 458.008 c 27
 307.984 458.008 374.984 424 374.984 375 c 9
 374.984 667 l 25
 458.984 667 l 25
 458.984 0 l 25
 374.984 0 l 25
EndSplineSet
EndChar

StartChar: e
Encoding: 101 101 102
Width: 500
VWidth: 0
Flags: W
HStem: 0 21G<189.5 312.5> 229 63<136 361> 375 83.008<180.564 315.598>
VStem: 41 84<142.172 229> 375 84<111.566 154>
LayerCount: 2
Fore
SplineSet
250 375 m 27
 195 375 141 334 136 292 c 9
 361 292 l 17
 353 334 304 375 250 375 c 27
250 458.008 m 27
 371 458.008 459 360 459 229 c 9
 125 229 l 17
 125 135 175 83 250 83 c 27
 306 83 375 98 375 154 c 9
 459 154 l 17
 459 78 375 0 250 0 c 3
 129 0 41 108 41 229 c 27
 41 350 129 458.008 250 458.008 c 27
EndSplineSet
Validated: 1
EndChar

StartChar: f
Encoding: 102 102 103
Width: 500
VWidth: 0
Flags: W
HStem: 0 21G<125 209> 292 83<41 125 209 333> 584 83.0123<234.313 352.688>
VStem: 125 84<0 292 375 560.685> 375 84<516 562.241>
LayerCount: 2
Fore
SplineSet
125 292 m 25
 41 292 l 25
 41 375 l 25
 125 375 l 25
 125 517 l 17
 125 607.253 211.56 667.012 289.076 667.012 c 0
 289.718 667.012 290.359 667.008 291 667 c 1
 375 667 459 603 459 516 c 9
 375 516 l 17
 375 558 341 584 291 584 c 1
 246 584 209 553 209 517 c 9
 209 375 l 25
 333 375 l 25
 333 292 l 25
 209 292 l 25
 209 0 l 25
 125 0 l 25
 125 292 l 25
EndSplineSet
Validated: 1
EndChar

StartChar: g
Encoding: 103 103 104
Width: 500
VWidth: 0
Flags: W
HStem: -166 83<151.784 336.406> 42 71<181.05 319.151> 369 89.008<181.823 319.857>
VStem: 41 84<-58.383 -20 170.196 311.05> 375 84<-45.5975 130 169.299 312.701 375 458.008>
LayerCount: 2
Fore
SplineSet
125 241 m 0
 125 170 181 113 250 113 c 0
 319 113 375 170 375 241 c 0
 375 312 319 369 250 369 c 0
 181 369 125 312 125 241 c 0
375 458.008 m 25
 459 458.008 l 25
 459 0 l 18
 459 -104 355 -166 251 -166 c 27
 151 -166 41 -118 41 -20 c 9
 125 -20 l 17
 125 -69 195 -83 249 -83 c 19
 314 -83 375 -54 375 0 c 9
 375 130 l 17
 375 68 310 42 250 42 c 0
 132 42 41 137 41 253 c 27
 41 367 136 458.008 250 458.008 c 27
 309 458.008 365 407 375 375 c 9
 375 458.008 l 25
EndSplineSet
Validated: 1
EndChar

StartChar: i
Encoding: 105 105 105
Width: 500
VWidth: 0
Flags: W
HStem: 0 21G<209 291> 502 82<209 291>
VStem: 209 82<0 375 502 584>
LayerCount: 2
Fore
SplineSet
209 584 m 1
 291 584 l 1
 291 502 l 1
 209 502 l 1
 209 584 l 1
291 458.008 m 25
 291 0 l 25
 209 0 l 25
 209 375 l 25
 125 458.008 l 25
 291 458.008 l 25
EndSplineSet
Validated: 1
EndChar

StartChar: j
Encoding: 106 106 106
Width: 500
VWidth: 0
Flags: W
HStem: -166 83<154.804 263.391> -20 20G<41 125> 502 82<291 375>
VStem: 41 84<-51.7104 0> 291 84<-53.3651 375 502 584>
LayerCount: 2
Fore
SplineSet
291 584 m 1
 375 584 l 1
 375 502 l 1
 291 502 l 1
 291 584 l 1
291 375 m 25
 207 458.008 l 25
 375 458.008 l 25
 375 279.008 375 179 375 0 c 27
 375 -92 301 -166 209 -166 c 27
 117 -166 41 -98 41 0 c 9
 125 0 l 17
 125 -43 163 -83 209 -83 c 27
 255 -83 291 -46 291 0 c 27
 291 146 291 229 291 375 c 25
EndSplineSet
Validated: 1
EndChar

StartChar: k
Encoding: 107 107 107
Width: 500
VWidth: 0
Flags: W
HStem: 0 21G<41 125 358.636 459> 647 20G<41 125>
VStem: 41 84<0 210 292 667>
LayerCount: 2
Fore
SplineSet
125 0 m 25
 41 0 l 25
 41 667 l 25
 125 667 l 25
 125 292 l 25
 291 458.008 l 25
 375 458.008 l 25
 215 298 l 25
 459 0 l 25
 375 0 l 25
 168 253 l 25
 125 210 l 25
 125 0 l 25
EndSplineSet
Validated: 1
EndChar

StartChar: l
Encoding: 108 108 108
Width: 500
VWidth: 0
Flags: W
HStem: 0 21G<304 375> 647 20G<209 291>
VStem: 209 82<101.658 667>
LayerCount: 2
Fore
SplineSet
209 667 m 25
 291 667 l 25
 291 147 l 17
 291 96 332 83 375 83 c 9
 375 0 l 25
 331 0 l 17
 277 0 209 53 209 146 c 9
 209 667 l 25
EndSplineSet
Validated: 1
EndChar

StartChar: m
Encoding: 109 109 109
Width: 500
VWidth: 0
Flags: W
HStem: 0 21G<41 125 209 291 375 459> 334 124.008<139.657 192.092 305.987 358.561>
VStem: 41 84<0 323.945> 209 82<0 321.188> 375 84<0 321.188>
CounterMasks: 1 38
LayerCount: 2
Fore
SplineSet
459 292 m 10
 459 0 l 25
 375 0 l 25
 375 252 l 26
 375 252 368 334 332 334 c 27
 296 334 291 252 291 252 c 26
 291 0 l 25
 209 0 l 25
 209 252 l 26
 209 252 202 334 166 334 c 27
 130 334 125 252 125 252 c 26
 125 0 l 25
 41 0 l 25
 41 458.008 l 25
 125 458.008 l 18
 205 458.008 250 374 250 374 c 17
 250 404 287 458.008 333 458.008 c 27
 414 458.008 459 372 459 292 c 10
EndSplineSet
Validated: 1
EndChar

StartChar: n
Encoding: 110 110 110
Width: 500
VWidth: 0
Flags: HW
HStem: 0 21G<41 125 375 459> 375 83.008<198.631 335.896>
VStem: 41 84<0 313.242 354 458.008 458.008 458.008> 375 84<0 336.444>
LayerCount: 2
Fore
SplineSet
125 0 m 25
 41 0 l 25
 41 458.008 l 25
 125 458.008 l 25
 125 354 l 17
 125 410 215 458.008 291 458.008 c 3
 380 458.008 459 375 459 292 c 14
 459 0 l 25
 375 0 l 25
 375 266 l 18
 375 330 347 375 250 375 c 0
 175.042 375 125 309 125 229 c 10
 125 0 l 25
EndSplineSet
EndChar

StartChar: o
Encoding: 111 111 111
Width: 500
VWidth: 0
Flags: W
HStem: 0 21G<133.5 368.5> 375 83.008<152.835 345.786>
VStem: 41 84<110.248 346.764> 375 84<112.225 163 163 346.764>
LayerCount: 2
Fore
SplineSet
209 375 m 27
 163 375 125 337 125 291 c 27
 125 240 125 210 125 159 c 27
 125 115 165 83 209 83 c 27
 241 83 259 83 291 83 c 27
 336 83 375 118 375 163 c 27
 375 213 375 242 375 292 c 27
 375 338 337 375 291 375 c 27
 259 375 241 375 209 375 c 27
41 123 m 27
 41 205 41 252 41 334 c 27
 41 403 99 458.008 169 458.008 c 27
 233 458.008 269 458.008 333 458.008 c 27
 402 458.008 459 403 459 334 c 27
 459 252 459 207 459 125 c 27
 459 56 403 0 334 0 c 27
 269 0 233 0 168 0 c 27
 99 0 41 54 41 123 c 27
EndSplineSet
Validated: 1
EndChar

StartChar: p
Encoding: 112 112 112
Width: 500
VWidth: 0
Flags: W
HStem: 0 21G<221 313> 377 81.008<185.148 313.582>
VStem: 41 84<-166 83 147.209 311.424 375 458.008> 375 84<148.93 310.94>
LayerCount: 2
Fore
SplineSet
125 229 m 0
 125 148 181 83 250 83 c 0
 319 83 375 148 375 229 c 0
 375 310 319 377 250 377 c 0
 181 377 125 310 125 229 c 0
125 458.008 m 25
 125 375 l 17
 151 419 191 458.008 250 458.008 c 27
 366 458.008 459 364 459 248 c 27
 459 122 376 0 250 0 c 27
 192 0 125 34 125 83 c 9
 125 -166 l 25
 41 -166 l 25
 41 458.008 l 25
 125 458.008 l 25
EndSplineSet
Validated: 1
EndChar

StartChar: q
Encoding: 113 113 113
Width: 500
VWidth: 0
Flags: W
HStem: 0 21G<187 279> 377 81.0078<186.418 314.852>
VStem: 41 84<148.93 310.94> 375 84<-166 83 147.209 311.424 375 458.008>
LayerCount: 2
Fore
SplineSet
375 229 m 0
 375 310 319 377 250 377 c 0
 181 377 125 310 125 229 c 0
 125 148 181 83 250 83 c 0
 319 83 375 148 375 229 c 0
375 458.008 m 25
 459 458.008 l 25
 459 -166 l 25
 375 -166 l 25
 375 83 l 17
 375 34 308 0 250 0 c 27
 124 0 41 122 41 248 c 27
 41 364 134 458.008 250 458.008 c 27
 309 458.008 349 419 375 375 c 9
 375 458.008 l 25
EndSplineSet
Validated: 1
EndChar

StartChar: r
Encoding: 114 114 114
Width: 500
VWidth: 0
Flags: HW
HStem: 0 21G<41 125> 375 83.008<174.309 338.386>
VStem: 41 84<0 341.327 375 458.008 458.008 458.008>
LayerCount: 2
Fore
SplineSet
125 0 m 25
 41 0 l 25
 41 458.008 l 25
 125 458.008 l 25
 125 375 l 17
 130 416 191.48 458.008 250 458.008 c 27
 344.778 458.008 441 375 459 334 c 9
 375 334 l 17
 346 361 301.306 375 250 375 c 27
 176.804 375 125 295 125 235 c 10
 125 0 l 25
EndSplineSet
EndChar

StartChar: s
Encoding: 115 115 115
Width: 500
VWidth: 0
Flags: W
HStem: 0 68<138.86 350.071> 199 63<142.246 349.746> 391 67.008<155.767 368.039>
VStem: 40 85<279.6 362.185> 375 84<91.7211 174.844>
LayerCount: 2
Fore
SplineSet
250 458.008 m 27
 334 458.008 400 431 459 406 c 1
 459 334 l 1
 389 360 334 391 250 391 c 27
 194 391 125 375 125 319 c 27
 125 265 196 262 250 262 c 27
 346 262 459 229 459 133 c 27
 459 36 347 0 250 0 c 27
 165 0 100 35 41 61 c 9
 41 131 l 17
 108 104 165 68 250 68 c 27
 305 68 375 79 375 134 c 27
 375 189 305 199 250 199 c 27
 156 199 40 225 40 319 c 27
 40 417 152 458.008 250 458.008 c 27
EndSplineSet
Validated: 1
EndChar

StartChar: t
Encoding: 116 116 116
Width: 500
VWidth: 0
Flags: W
HStem: 0 21G<239 343.5> 376 82.008<41 125 209 333>
VStem: 125 84<112.187 376 458.008 584> 375 84<116.507 210>
LayerCount: 2
Fore
SplineSet
125 376 m 25
 41 376 l 25
 41 458.008 l 25
 125 458.008 l 25
 125 584 l 25
 209 584 l 25
 209 458.008 l 25
 333 458.008 l 25
 333 376 l 25
 209 376 l 25
 209 210 l 18
 209 130 232 82 291 82 c 27
 351 82 375 137 375 210 c 9
 459 210 l 17
 459 106 396 0 291 0 c 27
 187 0 125 89 125 210 c 10
 125 376 l 25
EndSplineSet
Validated: 1
EndChar

StartChar: u
Encoding: 117 117 117
Width: 500
VWidth: 0
Flags: HW
LayerCount: 2
Fore
SplineSet
375 458 m 25
 459 458 l 25
 459 -0.0078125 l 25
 375 -0.0078125 l 25
 375 104 l 17
 375 48 285 -0.0078125 209 -0.0078125 c 3
 80.9375 -0.0078125 41 52 41 166 c 10
 41 458 l 25
 125 458 l 25
 125 192 l 18
 125 128 153 83 250 83 c 0
 324.958 83 375 149 375 229 c 10
 375 458 l 25
EndSplineSet
EndChar

StartChar: v
Encoding: 118 118 118
Width: 500
VWidth: 0
Flags: W
HStem: 0 21G<201.664 298.336>
LayerCount: 2
Fore
SplineSet
41 458.008 m 25
 125 458.008 l 25
 250 83 l 25
 375 458.008 l 25
 459 458.008 l 25
 291 0 l 25
 209 0 l 25
 41 458.008 l 25
EndSplineSet
Validated: 1
EndChar

StartChar: w
Encoding: 119 119 119
Width: 500
VWidth: 0
Flags: W
HStem: 0 21G<117 216.321 283.679 383>
VStem: 41 84<210 458.008> 209 82<210 375> 375 84<210 458.008>
CounterMasks: 1 70
LayerCount: 2
Fore
SplineSet
41 458.008 m 25
 125 458.008 l 25
 125 210 l 25
 166 83 l 25
 209 210 l 25
 209 375 l 25
 291 375 l 25
 291 210 l 25
 333 83 l 25
 375 210 l 25
 375 458.008 l 25
 459 458.008 l 25
 459 210 l 25
 375 0 l 25
 291 0 l 25
 250 112 l 25
 209 0 l 25
 125 0 l 25
 41 210 l 25
 41 458.008 l 25
EndSplineSet
Validated: 1
EndChar

StartChar: x
Encoding: 120 120 120
Width: 500
VWidth: 0
Flags: W
HStem: 0 21G<41 140.244 359.756 459>
LayerCount: 2
Fore
SplineSet
41 458.008 m 29
 125 458.008 l 29
 250 292 l 29
 375 458.008 l 29
 459 458.008 l 29
 291 229 l 29
 459 0 l 29
 375 0 l 29
 250 164 l 29
 125 0 l 29
 41 0 l 29
 209 229 l 29
 41 458.008 l 29
EndSplineSet
Validated: 1
EndChar

StartChar: y
Encoding: 121 121 121
Width: 500
VWidth: 0
Flags: W
HStem: -166 83<151.784 336.406> 42 83<187.414 312.464>
VStem: 41 84<-58.383 -20 198.707 458.008> 375 84<-45.5975 130 197.337 458.008>
LayerCount: 2
Fore
SplineSet
41 458.008 m 25
 125 458.008 l 25
 125 292 l 18
 125 212 169 125 250 125 c 24
 331 125 375 212 375 292 c 10
 375 458.008 l 25
 459 458.008 l 25
 459 0 l 18
 459 -104 355 -166 251 -166 c 27
 151 -166 41 -118 41 -20 c 9
 125 -20 l 17
 125 -69 195 -83 249 -83 c 19
 314 -83 375 -54 375 0 c 9
 375 130 l 17
 363 69 310 42 250 42 c 27
 145 42 41 130 41 210 c 10
 41 458.008 l 25
EndSplineSet
Validated: 1
EndChar

StartChar: z
Encoding: 122 122 122
Width: 500
VWidth: 0
Flags: W
HStem: 0 21G<41 459> 375 83.008<41 375>
LayerCount: 2
Fore
SplineSet
41 375 m 25
 41 458.008 l 25
 459 458.008 l 25
 459 375 l 25
 125 83 l 25
 459 83 l 25
 459 0 l 25
 41 0 l 25
 41 83 l 25
 375 375 l 25
 41 375 l 25
EndSplineSet
Validated: 1
EndChar

StartChar: braceleft
Encoding: 123 123 123
Width: 500
VWidth: 0
Flags: W
HStem: -83 83<321.803 458.984> 291.992 83.008<41 122.052> 666.992 83<375 459> 667 83<320.233 459>
VStem: 41 84<312 362> 208.984 82.032<29.8049 211.432 443.995 637.195>
LayerCount: 2
Fore
SplineSet
459 749.992 m 25xec
 459 666.992 l 25xec
 426.24 666.995 407.76 667 375 667 c 27
 328.95 667 291.016 630.05 291.016 584 c 27
 291.016 549.29 291.016 529.71 291.016 495 c 17
 291.016 426.024 208.984 372 125 362 c 9
 125 312 l 17
 208.984 305 291.016 238 291.016 177 c 3
 291.016 140.34 291.016 119.66 291.016 83 c 27
 291.016 36.9502 328.95 0 375 0 c 27
 407.754 0 426.23 0 458.984 0 c 25
 459 -83 l 25
 426.24 -83 407.76 -83 375 -83 c 27
 283.439 -83 208.984 -8.56055 208.984 83 c 27
 208.984 187.572 187 291.992 41 291.992 c 9
 41 375 l 17
 204 375 208.984 479.425 208.984 584 c 27
 208.984 675.561 283.439 750 375 750 c 27xdc
 407.76 750 426.24 749.995 459 749.992 c 25xec
EndSplineSet
Validated: 1
EndChar

StartChar: bar
Encoding: 124 124 124
Width: 500
VWidth: 0
Flags: W
VStem: 208.984 82.016<-83 584>
LayerCount: 2
Fore
SplineSet
208.984 584 m 1
 291 584 l 1
 291 -83 l 1
 208.984 -83 l 1
 208.984 584 l 1
EndSplineSet
Validated: 1
EndChar

StartChar: asciitilde
Encoding: 126 126 126
Width: 500
VWidth: 0
Flags: W
HStem: 209.961 82.0312<303.427 384.577> 375 83.008<114.223 197.742>
VStem: 41 50<333.984 350.913>
LayerCount: 2
Fore
SplineSet
91 291.992 m 13
 41 333.984 l 21
 41.0156 394 98.0479 458.008 167 458.008 c 31
 235.398 458.008 274 389 291.016 334 c 4
 297.944 311.608 317.63 291.992 344 291.992 c 31
 386.854 291.992 409 347 416 375 c 13
 459 333.984 l 21
 458.984 257 401.951 209.961 333 209.961 c 31
 264.317 209.961 233 267 208.984 335 c 4
 201.452 356.325 181.892 375 156 375 c 31
 114.883 375 96 333.984 91 291.992 c 13
EndSplineSet
EndChar

StartChar: sterling
Encoding: 163 163 163
Width: 500
VWidth: 0
Flags: W
HStem: 0 21G<41 430.157> 63.0078 20G<73.6395 125> 291.992 83.008<81 125 208.984 330> 584 83<243.972 346.006>
VStem: 125 83.984<83 292 375 543.671>
LayerCount: 2
Fore
SplineSet
209 83 m 1
 459 83 l 1
 421 0 l 1
 41 0 l 1
 84 83.0078 l 1
 125 83 l 9
 125 292 l 25
 41 291.992 l 25
 81 375 l 25
 125 375 l 25
 125 407.37 125 425.63 125 458 c 27
 125 562.096 186.92 667 291.016 667 c 27
 372.673 667 437 609 458.984 542 c 9
 374.984 524 l 17
 361 555 331.265 584 291.016 584 c 27
 232.379 584 208.984 516.637 208.984 458 c 27
 208.984 425.63 208.984 407.37 208.984 375 c 25
 374.984 374.992 l 25
 330 291.992 l 25
 208.984 292 l 25
 209 83 l 1
EndSplineSet
Validated: 1
EndChar

StartChar: currency
Encoding: 164 164 164
Width: 500
VWidth: 0
Flags: HW
HStem: -5.00842e+07 2.29646e+06G<-4.75265e+13 4.75265e+13> -4.31948e+07 2.18711e+06G<-4.75265e+13 4.75265e+13>
LayerCount: 2
Fore
SplineSet
195 458 m 0
 195 426.536 219.64 401 250 401 c 0
 280.36 401 305 426.536 305 458 c 0
 305 489.464 280.36 515 250 515 c 0
 219.64 515 195 489.464 195 458 c 0
313.719 334.25 m 1
 294.659 324.161 272.984 318.455 250 318.455 c 0
 226.198 318.455 203.799 324.575 184.255 335.344 c 1
 100.016 256 l 1
 41.0078 315 l 1
 123.494 402.575 l 1
 116.217 419.567 112.183 438.309 112.183 458 c 0
 112.183 480.664 117.528 502.072 127.01 521.001 c 1
 41.0078 602 l 1
 106 666.984 l 1
 186.281 581.75 l 1
 205.341 591.839 227.016 597.545 250 597.545 c 0
 272.984 597.545 294.659 591.839 313.719 581.75 c 1
 394 666.984 l 1
 458.984 602 l 1
 372.989 521.002 l 1
 382.472 502.073 387.817 480.665 387.817 458 c 0
 387.817 435.335 382.472 413.927 372.989 394.998 c 1
 458.984 314 l 1
 394 249.016 l 1
 313.719 334.25 l 1
EndSplineSet
EndChar

StartChar: yen
Encoding: 165 165 165
Width: 500
VWidth: 0
Flags: W
HStem: 0 21G<209 291> 127.992 82<81 209 291 419> 291.992 83.0078<81 171.813 328.187 419> 647 20G<41 133.562 366.438 459>
VStem: 209 82<0 127.992 209.992 291.992>
LayerCount: 2
Fore
SplineSet
41 667 m 1
 125 667 l 1
 250 375 l 1
 375 667 l 1
 459 667 l 1
 328.187 375 l 1
 419 375 l 1
 419 291.992 l 1
 291 291.992 l 1
 291 209.992 l 1
 419 209.992 l 1
 419 127.992 l 1
 291 127.992 l 1
 291 0 l 1
 209 0 l 1
 209 127.992 l 1
 81 127.992 l 1
 81 209.992 l 1
 209 209.992 l 1
 209 291.992 l 1
 81 291.992 l 1
 81 375 l 1
 171.813 375 l 1
 41 667 l 1
EndSplineSet
Validated: 1
EndChar

StartChar: brokenbar
Encoding: 166 166 166
Width: 500
VWidth: 0
Flags: W
VStem: 208.969 82.0312<-83 209 292 584>
LayerCount: 2
Fore
SplineSet
208.969 209 m 1
 291 209 l 1
 291 -83 l 1
 208.969 -83 l 1
 208.969 209 l 1
208.969 584 m 1
 291 584 l 1
 291 292 l 1
 208.969 292 l 1
 208.969 584 l 1
EndSplineSet
Validated: 1
EndChar

StartChar: section
Encoding: 167 167 167
Width: 500
VWidth: 0
Flags: HW
HStem: 0 21G<41 459> 63 20G<41 459>
LayerCount: 2
Fore
SplineSet
41 83 m 5
 459 83 l 5
 459 0 l 5
 41 0 l 5
 41 83 l 5
EndSplineSet
EndChar

StartChar: dieresis
Encoding: 168 168 168
Width: 500
VWidth: 0
Flags: HW
HStem: 0 21G<41 459> 63 20G<41 459>
LayerCount: 2
Fore
SplineSet
283 627 m 4
 283 654.6 305.4 677 333 677 c 4
 360.6 677 383 654.6 383 627 c 4
 383 599.4 360.6 577 333 577 c 4
 305.4 577 283 599.4 283 627 c 4
114 627 m 4
 114 655.704 137.744 679 167 679 c 4
 196.256 679 220 655.704 220 627 c 4
 220 598.296 196.256 575 167 575 c 4
 137.744 575 114 598.296 114 627 c 4
EndSplineSet
EndChar

StartChar: copyright
Encoding: 169 169 169
Width: 500
VWidth: 0
Flags: HW
HStem: 0 21G<41 459> 63 20G<41 459>
LayerCount: 2
Fore
SplineSet
329 458.008 m 13
 329 390 l 21
 291.016 390 244 373.686 244 333.984 c 31
 244 295.252 282 281 328 281 c 13
 328 209.961 l 21
 223 209.961 168 255.032 168 333.984 c 31
 168 413.244 243 458.008 329 458.008 c 13
291.016 543 m 14
 209.016 543 l 22
 169.016 543 125.036 549 125.031 459 c 14
 125 214 l 22
 124.988 124 169.016 125 209.016 125 c 14
 291.016 125 l 22
 331.016 125 374.988 124 375 214 c 14
 375.031 459 l 22
 375.036 549 331.016 543 291.016 543 c 14
41 214 m 14
 41.0312 459 l 22
 41.0361 549 85.0156 626 125.016 626 c 14
 375.016 626 l 22
 415.016 626 459.036 549 459.031 459 c 14
 459 214 l 22
 458.988 124 415.016 42 375.016 42 c 14
 125.016 42 l 22
 85.0156 42 40.9883 124 41 214 c 14
EndSplineSet
EndChar

StartChar: ordfeminine
Encoding: 170 170 170
Width: 500
VWidth: 0
Flags: W
HStem: 209.961 82.0312<125.016 459> 375 82.9922<216.497 356.674> 540.953 67.0391<221.123 370.503> 666.992 83.0078<209 358.921>
VStem: 142.016 66.9688<469.302 524.665> 375.016 84<374.984 416.977 462.227 534.671 580.992 650.273>
LayerCount: 2
Fore
SplineSet
125.016 291.992 m 1
 459 291.992 l 1
 459 209.961 l 1
 125.016 209.961 l 1
 125.016 291.992 l 1
208.984 496.992 m 0
 209 474.992 239.016 457.992 291.031 457.992 c 0
 360.031 457.992 375 460.992 375 496.992 c 0
 375 532.992 360 540.882 291 540.953 c 0
 245.016 541 208.968 520.992 208.984 496.992 c 0
209 750 m 1
 359.016 749.984 459 734.992 459.016 666.977 c 9
 459.016 374.984 l 25
 375.016 374.984 l 25
 375.016 416.977 l 17
 364.016 394.992 327.639 375 291.016 375 c 27
 216.16 375 142.016 421.137 142.016 495.992 c 27
 142.016 568.693 218.33 607.992 291.031 607.992 c 3
 319.033 607.992 365.016 597.992 375 580.992 c 9
 375.016 621.992 l 17
 375.016 657.992 317.016 666.977 209 666.992 c 9
 209 666.992 209 720 209 750 c 1
EndSplineSet
EndChar

StartChar: guillemotleft
Encoding: 171 171 171
Width: 500
VWidth: 0
Flags: W
HStem: 0 21G<194.328 291 362.328 459>
LayerCount: 2
Fore
SplineSet
209 229 m 29
 377 458 l 29
 459 458 l 29
 293 229 l 29
 459 0 l 29
 377 0 l 29
 209 229 l 29
41 229 m 29
 209 458 l 29
 291 458 l 29
 125 229 l 29
 291 0 l 29
 209 0 l 29
 41 229 l 29
EndSplineSet
EndChar

StartChar: logicalnot
Encoding: 172 172 172
Width: 500
VWidth: 0
Flags: W
HStem: 209.961 165.039<375 459> 291.992 83.008<41 375>
VStem: 375 84<209.961 292>
LayerCount: 2
Fore
SplineSet
41 291.992 m 29x60
 41 375 l 25x60
 459 375 l 25
 459 209.961 l 25
 375 209.961 l 25xa0
 375 292 l 25
 41 291.992 l 29x60
EndSplineSet
EndChar

StartChar: registered
Encoding: 174 174 174
Width: 500
VWidth: 0
Flags: HW
HStem: 0 21G<41 459> 63 20G<41 459>
LayerCount: 2
Fore
SplineSet
250 229 m 25
 165 229 l 25
 165 375 l 17
 165 424 200 458.008 250 458 c 9
 334 458.008 l 25
 334 375 l 25
 250 375 l 25
 250 229 l 25
291.016 543 m 10
 209.016 543 l 18
 169.016 543 125.036 549 125.031 459 c 10
 125 214 l 18
 124.988 124 169.016 125 209.016 125 c 10
 291.016 125 l 18
 331.016 125 374.988 124 375 214 c 10
 375.031 459 l 18
 375.036 549 331.016 543 291.016 543 c 10
41 214 m 10
 41.0312 459 l 18
 41.0361 549 85.0156 626 125.016 626 c 10
 375.016 626 l 18
 415.016 626 459.036 549 459.031 459 c 10
 459 214 l 18
 458.988 124 415.016 42 375.016 42 c 10
 125.016 42 l 18
 85.0156 42 40.9883 124 41 214 c 10
EndSplineSet
EndChar

StartChar: macron
Encoding: 175 175 175
Width: 500
VWidth: 0
Flags: HW
HStem: 0 21G<41 459> 63 20G<41 459>
LayerCount: 2
Fore
SplineSet
125 666.984 m 1
 375 666.984 l 1
 375 583.984 l 1
 125 583.984 l 1
 125 666.984 l 1
EndSplineSet
EndChar

StartChar: degree
Encoding: 176 176 176
Width: 500
VWidth: 0
Flags: HW
HStem: -1.96696e+23 4.62398e+22<-1.60729e+17 1.59366e+17> -4.51118e+22 4.51118e+22<-1.60729e+17 1.59366e+17>
VStem: -3.84011e+17 1.76568e+17<-1.39014e+23 -5.71184e+22> 2.04718e+17 1.79289e+17<-1.39014e+23 -5.71184e+22>
LayerCount: 2
Fore
SplineSet
190 521 m 4
 190 485.961 213.178 458.462 249.88 458.462 c 4
 286.581 458.462 310 486.961 310 522 c 4
 310 557.04 286.701 583.984 250 583.984 c 4
 213.298 583.984 190 556.04 190 521 c 4
106.724 521.089 m 4
 106.724 601.61 171.077 666.962 250.37 666.962 c 4
 329.663 666.962 394.016 601.61 394.016 521.089 c 4
 394.016 440.566 329.663 375.215 250.37 375.215 c 4
 171.077 375.215 106.724 440.566 106.724 521.089 c 4
EndSplineSet
EndChar

StartChar: plusminus
Encoding: 177 177 177
Width: 500
VWidth: 0
Flags: HW
HStem: 0 21G<41 459> 63 20G<41 459>
LayerCount: 2
Fore
SplineSet
40.9844 333.984 m 1
 41 421.992 l 1
 209 421.992 l 1
 209 584 l 1
 291.031 584 l 1
 291.031 421.992 l 1
 459.016 421.992 l 1
 459 333.984 l 1
 291.016 333.984 l 1
 291.031 209.984 l 1
 458.984 210 l 1
 458.984 127 l 1
 41 126.961 l 1
 41 209.961 l 1
 209.024 209.977 l 1
 208.984 333.984 l 1
 40.9844 333.984 l 1
EndSplineSet
EndChar

StartChar: uni00B2
Encoding: 178 178 178
Width: 500
VWidth: 0
Flags: W
HStem: 375 83.0078<41 108.685 176 334> 666.992 83.0078<140.393 227.023>
VStem: 41.0156 83.9844<583.984 652.773> 250 83<543.687 645.437>
LayerCount: 2
Fore
SplineSet
334 458 m 25
 334 375 l 25
 41 375 l 17
 41.0156 388 41 442.008 41 458.008 c 1
 146 487 250 530.311 250 583.984 c 11
 250 624.625 223.451 666.992 187 666.992 c 3
 131 666.992 125 614.984 125 583.984 c 9
 41.0156 583.984 l 17
 41.0156 696 93 750 190 750 c 3
 291 750 333 698.018 333 583.984 c 3
 333 505.479 201.016 466.008 176 458.008 c 9
 334 458 l 25
EndSplineSet
EndChar

StartChar: uni00B3
Encoding: 179 179 179
Width: 500
VWidth: 0
Flags: HW
HStem: 0 21G<41 459> 63 20G<41 459>
LayerCount: 2
Fore
SplineSet
41 667 m 25
 41 750.008 l 25
 291.016 750.016 l 25
 291.016 667 l 25
 207.031 584 l 17
 241.016 583.984 291.016 547.051 291.016 501 c 27
 291.016 431.781 235.234 375 166.016 375 c 27
 117.266 375 89.7656 375 41.0156 375 c 25
 41.0156 458 l 25
 89.7656 458 117.266 458 166.016 458 c 27
 188.359 458 207.031 475.656 207.031 498 c 27
 207.031 533.766 160.016 539 125 539 c 9
 125 584 l 25
 207.031 667 l 25
 41 667 l 25
EndSplineSet
EndChar

StartChar: acute
Encoding: 180 180 180
Width: 500
VWidth: 0
Flags: W
HStem: 647 20G<208.984 359.113>
LayerCount: 2
Fore
SplineSet
375 667 m 9
 208.984 667 l 17
 208.984 566 l 1
 125 458 l 1
 208.984 458 l 1
 375 667 l 9
EndSplineSet
EndChar

StartChar: uni00B5
Encoding: 181 181 181
Width: 500
VWidth: 0
Flags: HW
HStem: 0 21G<41 459> 63 20G<41 459>
LayerCount: 2
Fore
SplineSet
125 -126 m 25
 41 -166 l 25
 41 458.008 l 25
 125 458 l 25
 125 361.265 125 307 125 209.961 c 0
 125 135 149.616 83 208.984 83 c 27
 267.932 83 291 127 291 209.961 c 3
 291 306.696 291.01 361.265 291.016 458 c 25
 375 457 l 25
 375 335.32 375 266.68 375 145 c 27
 375 104.284 395 83.0078 459 83.0078 c 9
 458.984 0 l 17
 396 0 331 16 318 83.0078 c 1
 306 40 262.422 0 208.984 0 c 27
 167.326 0 137 34 125 66 c 9
 125 -126 l 25
EndSplineSet
EndChar

StartChar: paragraph
Encoding: 182 182 182
Width: 500
VWidth: 0
Flags: HW
HStem: 0 21G<41 459> 63 20G<41 459>
LayerCount: 2
Fore
SplineSet
208.984 375 m 9
 208.984 584 l 17
 147 583.984 125 532.134 125 480 c 27
 125 427.562 148 375 208.984 375 c 9
291.016 584 m 1
 291.016 83.0078 l 1
 375 83.0078 l 1
 375 584 l 1
 291.016 584 l 1
208.984 667 m 27
 306.49 667 361.494 666.995 459 666.992 c 25
 458.984 0 l 25
 375 0 l 25
 208.984 0 l 25
 208.984 292 l 17
 111 291.992 41.0156 380.969 41.0156 479 c 27
 41.0156 577.321 110.663 667 208.984 667 c 27
EndSplineSet
EndChar

StartChar: periodcentered
Encoding: 183 183 183
Width: 500
VWidth: 0
Flags: HW
HStem: 0 21G<41 459> 63 20G<41 459>
LayerCount: 2
Fore
SplineSet
187 271 m 1
 187 398 l 1
 314 398 l 1
 314 271 l 1
 187 271 l 1
EndSplineSet
EndChar

StartChar: cedilla
Encoding: 184 184 184
Width: 500
VWidth: 0
Flags: HW
HStem: 0 21G<41 459> 63 20G<41 459>
LayerCount: 2
Fore
SplineSet
208.984 83 m 13
 291.016 83 l 21
 291.016 37 295 0 333 0 c 4
 357 0 375 -40 375 -83 c 5
 375 -125 337 -166 250 -166 c 5
 190 -166 143 -145 125 -122 c 13
 209 -83 l 21
 264 -83 291.016 -73 291.016 -47 c 7
 291.016 -22.6719 272.344 0 250 0 c 7
 217.984 0 208.984 31 208.984 83 c 13
EndSplineSet
EndChar

StartChar: uni00B9
Encoding: 185 185 185
Width: 500
VWidth: 0
Flags: W
HStem: 648 20G<188.992 208.984>
VStem: 208.984 82.032<375 668>
LayerCount: 2
Fore
SplineSet
41 583.984 m 29
 208.969 750 l 29
 291 750 l 29
 291.016 375 l 29
 208.984 375 l 29
 208.984 668 l 29
 125 583.984 l 29
 41 583.984 l 29
EndSplineSet
EndChar

StartChar: ordmasculine
Encoding: 186 186 186
Width: 500
VWidth: 0
Flags: W
HStem: 209.961 82.0391<125 459> 375 97<240.964 341.85> 618 96<241.152 342.41>
VStem: 125 96<490.579 598.999> 361 98<490.805 599.401>
LayerCount: 2
Fore
SplineSet
221 545 m 0
 221 504 248 472 291 472 c 0
 334 472 361 505 361 546 c 0
 361 587 334 618 291 618 c 0
 249 618 221 585 221 545 c 0
125 545 m 0
 125 638 199 714 292 714 c 0
 384 714 459 638 459 545 c 0
 459 451 384 375 292 375 c 0
 199 375 125 451 125 545 c 0
125 292 m 1
 459 292 l 1
 459 209.961 l 5
 125 209.961 l 5
 125 292 l 1
EndSplineSet
EndChar

StartChar: guillemotright
Encoding: 187 187 187
Width: 500
VWidth: 0
Flags: W
HStem: 0 21G<41 137.672 209 305.672>
LayerCount: 2
Fore
SplineSet
291 229 m 25
 123 0 l 25
 41 0 l 25
 207 229 l 25
 41 458 l 25
 123 458 l 25
 291 229 l 25
459 229 m 25
 291 0 l 25
 209 0 l 25
 375 229 l 25
 209 458 l 25
 291 458 l 25
 459 229 l 25
EndSplineSet
EndChar

StartChar: Agrave
Encoding: 192 192 192
Width: 500
VWidth: 0
Flags: HW
HStem: 0 21G<41 459> 63 20G<41 459>
LayerCount: 2
Fore
SplineSet
125 750 m 29
 250 750 l 29
 291.016 584 l 29
 208.984 584 l 29
 125 750 l 29
375 249 m 9
 375 291.992 l 18
 375 361.992 349 417.984 250 417.984 c 3
 152 417.984 125 361.992 125 291.992 c 10
 125 249 l 17
 375 249 l 9
41 0 m 25
 41 291.992 l 18
 41 391.992 97 500.984 250 500.984 c 3
 400 500.984 459 391.992 459 291.992 c 10
 459 0 l 25
 375 0 l 25
 375 167 l 17
 125 167 l 9
 125 0 l 25
 41 0 l 25
EndSplineSet
EndChar

StartChar: Aacute
Encoding: 193 193 193
Width: 500
VWidth: 0
Flags: HW
HStem: 0 21G<41 459> 63 20G<41 459>
LayerCount: 2
Fore
SplineSet
375 750 m 25
 250 750 l 25
 208.984 584 l 25
 291.016 584 l 25
 375 750 l 25
375 254 m 9
 375 291.992 l 18
 375 361.992 349 417.984 250 417.984 c 3
 152 417.984 125 361.992 125 291.992 c 10
 125 254 l 17
 375 254 l 9
41 0 m 25
 41 291.992 l 18
 41 391.992 97 500.984 250 500.984 c 3
 400 500.984 459 391.992 459 291.992 c 10
 459 0 l 25
 375 0 l 25
 375 172 l 17
 125 172 l 9
 125 0 l 25
 41 0 l 25
EndSplineSet
EndChar

StartChar: Acircumflex
Encoding: 194 194 194
Width: 500
VWidth: 0
Flags: HW
HStem: 0 21G<41 125 375 459> 167 82<125 375> 417.984 83<167.906 331.734>
VStem: 41 84<0 167 249 374.614> 375 84<0 167 249 375.876>
LayerCount: 2
Fore
SplineSet
125 583.984 m 29
 209 750 l 29
 291 750 l 29
 375 583.984 l 29
 291.016 584 l 29
 250 667 l 29
 208.984 584 l 29
 125 583.984 l 29
375 249 m 9
 375 291.992 l 18
 375 361.992 349 417.984 250 417.984 c 3
 152 417.984 125 361.992 125 291.992 c 10
 125 249 l 17
 375 249 l 9
41 0 m 25
 41 291.992 l 18
 41 391.992 97 500.984 250 500.984 c 3
 400 500.984 459 391.992 459 291.992 c 10
 459 0 l 25
 375 0 l 25
 375 167 l 17
 125 167 l 9
 125 0 l 25
 41 0 l 25
EndSplineSet
EndChar

StartChar: Atilde
Encoding: 195 195 195
Width: 500
VWidth: 0
Flags: W
HStem: 0 21G<41 125 375 459> 167 82<125 375> 417.984 83<167.906 331.734> 529.28 73.0078<300.249 388.083> 676.165 73.877<111.803 200.106>
VStem: 41 84<0 167 249 374.614> 41 50<639.661 654.728> 375 84<0 167 249 375.876>
LayerCount: 2
Fore
SplineSet
91 602.288 m 13xfb
 41 639.661 l 21
 41.0156 693.075 98.0479 750.042 167 750.042 c 31
 235.398 750.042 274 688.625 291.016 639.675 c 4
 297.944 619.746 317.63 602.288 344 602.288 c 31
 386.854 602.288 409 651.245 416 676.165 c 13
 459 639.661 l 21
 458.984 571.145 401.951 529.28 333 529.28 c 31
 264.317 529.28 233 580.045 208.984 640.564 c 4
 201.452 659.544 181.892 676.165 156 676.165 c 31
 114.883 676.165 96 639.661 91 602.288 c 13xfb
375 249 m 9
 375 291.992 l 18
 375 361.992 349 417.984 250 417.984 c 3
 152 417.984 125 361.992 125 291.992 c 10
 125 249 l 17xfd
 375 249 l 9
41 0 m 25
 41 291.992 l 18
 41 391.992 97 500.984 250 500.984 c 3
 400 500.984 459 391.992 459 291.992 c 10
 459 0 l 25
 375 0 l 25
 375 167 l 17
 125 167 l 9
 125 0 l 25
 41 0 l 25
EndSplineSet
EndChar

StartChar: Adieresis
Encoding: 196 196 196
Width: 500
VWidth: 0
Flags: HWO
HStem: 0 21G<41 459> 63 20G<41 459>
LayerCount: 2
Fore
SplineSet
283 627 m 4
 283 654.6 305.4 677 333 677 c 4
 360.6 677 383 654.6 383 627 c 4
 383 599.4 360.6 577 333 577 c 4
 305.4 577 283 599.4 283 627 c 4
114 627 m 4
 114 655.704 137.744 679 167 679 c 4
 196.256 679 220 655.704 220 627 c 4
 220 598.296 196.256 575 167 575 c 4
 137.744 575 114 598.296 114 627 c 4
375 249 m 9
 375 291.992 l 18
 375 361.992 349 417.984 250 417.984 c 3
 152 417.984 125 361.992 125 291.992 c 10
 125 249 l 17xfd
 375 249 l 9
41 0 m 25
 41 291.992 l 18
 41 391.992 97 500.984 250 500.984 c 3
 400 500.984 459 391.992 459 291.992 c 10
 459 0 l 25
 375 0 l 25
 375 167 l 17
 125 167 l 9
 125 0 l 25
 41 0 l 25
EndSplineSet
EndChar

StartChar: Aring
Encoding: 197 197 197
Width: 500
VWidth: 0
Flags: HW
HStem: 750 1.98629e-16G<250 250> 750 1.89171e-16G<250 250>
LayerCount: 2
Fore
SplineSet
203.666 637.975 m 0
 203.666 611.082 221.455 589.977 249.624 589.977 c 0
 277.792 589.977 295.766 611.85 295.766 638.742 c 0
 295.766 665.635 277.884 686.314 249.716 686.314 c 0
 221.547 686.314 203.666 664.867 203.666 637.975 c 0
139.751 638.042 m 0
 139.751 699.843 189.143 750 250 750 c 0
 310.857 750 360.249 699.843 360.249 638.042 c 0
 360.249 576.241 310.857 526.084 250 526.084 c 0
 189.143 526.084 139.751 576.241 139.751 638.042 c 0
375 249 m 9
 375 291.992 l 18
 375 361.992 349 417.984 250 417.984 c 3
 152 417.984 125 361.992 125 291.992 c 10
 125 249 l 17xfd
 375 249 l 9
41 0 m 25
 41 291.992 l 18
 41 391.992 97 500.984 250 500.984 c 3
 400 500.984 459 391.992 459 291.992 c 10
 459 0 l 25
 375 0 l 25
 375 167 l 17
 125 167 l 9
 125 0 l 25
 41 0 l 25
EndSplineSet
EndChar

StartChar: AE
Encoding: 198 198 198
Width: 500
VWidth: 0
Flags: HW
HStem: 0 21G<41 459> 63 20G<41 459>
LayerCount: 2
Fore
SplineSet
250 527 m 25
 213 375 l 25
 250 375 l 25
 250 527 l 25
136 83.0078 m 25
 250 83.0078 l 25
 250 292 l 25
 196 291.992 l 25
 136 83.0078 l 25
41.0156 0 m 25
 208.984 667 l 25
 459 666.992 l 25
 459 583.984 l 25
 332 584.008 l 25
 332 375.008 l 25
 459 375 l 25
 459 291.992 l 25
 332 292.008 l 25
 332 83.0078 l 25
 459 83.0078 l 25
 458.984 0 l 25
 41.0156 0 l 25
EndSplineSet
EndChar

StartChar: Ccedilla
Encoding: 199 199 199
Width: 500
VWidth: 0
Flags: HW
HStem: 0 21G<41 459> 63 20G<41 459>
LayerCount: 2
Fore
SplineSet
29 334 m 0
 29 494.446 89.5537 681 250 681 c 0
 349.652 681 459 534 459 534 c 1
 379 534 l 1
 379 534 308.392 610 250 610 c 0
 129.304 610 110 451 110 334 c 0
 110 222.104 137.104 83.0078 249 83.0078 c 0
 358 83.0078 380 124 380 124 c 1
 463 124 l 1
 463 124 377.356 33.1378 292.401 6.972 c 1
 295.489 -21.954 305.03 -42 333 -42 c 0
 357 -42 375 -76 375 -119 c 0
 375 -161 337 -208 250 -208 c 0
 190 -208 143 -187 125 -164 c 1
 208.984 -125 l 1
 249.984 -156 291.016 -126 291.016 -100 c 0
 291.016 -75.6719 272.344 -48 250 -48 c 0
 226.286 -48 215.199 -27.7006 211.044 3.95807 c 1
 82.9514 30.981 29 191.487 29 334 c 0
EndSplineSet
EndChar

StartChar: Egrave
Encoding: 200 200 200
Width: 500
VWidth: 0
Flags: HW
HStem: 0 21G<41 459> 63 20G<41 459>
LayerCount: 2
Fore
SplineSet
125 750 m 25
 250 750 l 25
 291.016 584 l 25
 208.984 584 l 25
 125 750 l 25
41.0156 498 m 25
 458.984 498 l 25
 458.984 417 l 25
 125 417 l 25
 125 292 l 25
 375 291.992 l 25
 375 209.961 l 25
 125 209.961 l 25
 125 83.0078 l 25
 459 83.0078 l 25
 458.984 0 l 25
 41.0156 0 l 25
 41.0156 498 l 25
EndSplineSet
EndChar

StartChar: Eacute
Encoding: 201 201 201
Width: 500
VWidth: 0
Flags: HW
HStem: 0 21G<41 459> 63 20G<41 459>
LayerCount: 2
Fore
SplineSet
375 750 m 25
 250 750 l 25
 208.984 584 l 25
 291.016 584 l 25
 375 750 l 25
41.0156 498 m 29
 458.984 498 l 29
 458.984 417 l 29
 125 417 l 29
 125 292 l 29
 375 291.992 l 29
 375 209.961 l 29
 125 209.961 l 29
 125 83.0078 l 29
 459 83.0078 l 29
 458.984 0 l 29
 41.0156 0 l 29
 41.0156 498 l 29
EndSplineSet
EndChar

StartChar: Ecircumflex
Encoding: 202 202 202
Width: 500
VWidth: 0
Flags: W
HStem: 0 21G<41.0156 458.988> 63.0078 20G<125 458.996> 209.961 82.039<125 375> 417 81<125 458.984>
VStem: 41.0156 83.9844<83.0078 209.961 292 417>
LayerCount: 2
Fore
SplineSet
41.0156 498 m 29
 458.984 498 l 29
 458.984 417 l 29
 125 417 l 29
 125 292 l 29
 375 291.992 l 29
 375 209.961 l 29
 125 209.961 l 29
 125 83.0078 l 29
 459 83.0078 l 29
 458.984 0 l 29
 41.0156 0 l 29
 41.0156 498 l 29
125 583.984 m 25
 209 750 l 25
 291 750 l 25
 375 583.984 l 25
 291.016 584 l 25
 250 667 l 25
 208.984 584 l 25
 125 583.984 l 25
EndSplineSet
EndChar

StartChar: Edieresis
Encoding: 203 203 203
Width: 500
VWidth: 0
Flags: W
HStem: 0 21G<41.0156 458.988> 63.0078 20G<125 458.996> 209.961 82.039<125 375> 417 81<125 458.984> 577 100<122.353 211.647 292.229 373.771>
VStem: 41.0156 83.9844<83.0078 209.961 292 417> 114 106<585.335 668.665> 283 100<586.229 667.771>
LayerCount: 2
Fore
SplineSet
283 627 m 4xf9
 283 654.6 305.4 677 333 677 c 4
 360.6 677 383 654.6 383 627 c 4
 383 599.4 360.6 577 333 577 c 4
 305.4 577 283 599.4 283 627 c 4xf9
114 627 m 4xfb
 114 655.704 137.744 679 167 679 c 4
 196.256 679 220 655.704 220 627 c 4
 220 598.296 196.256 575 167 575 c 4
 137.744 575 114 598.296 114 627 c 4xfb
41.0156 498 m 25
 458.984 498 l 25
 458.984 417 l 25
 125 417 l 25
 125 292 l 25
 375 291.992 l 25
 375 209.961 l 25
 125 209.961 l 25
 125 83.0078 l 25
 459 83.0078 l 25
 458.984 0 l 25
 41.0156 0 l 25xfd
 41.0156 498 l 25
EndSplineSet
EndChar

StartChar: Igrave
Encoding: 204 204 204
Width: 500
VWidth: 0
Flags: HW
HStem: 0 21G<41 459> 63 20G<41 459>
LayerCount: 2
Fore
SplineSet
125 750 m 25
 250 750 l 25
 291.016 584 l 25
 208.984 584 l 25
 125 750 l 25
125 0 m 29
 125 83 l 29
 209 83 l 29
 208.984 416 l 29
 124.984 416 l 29
 124.984 499 l 29
 374.984 499 l 29
 374.984 416 l 29
 290.984 416 l 29
 291 83 l 29
 375 83 l 29
 375 0 l 29
 125 0 l 29
EndSplineSet
EndChar

StartChar: Iacute
Encoding: 205 205 205
Width: 500
VWidth: 0
Flags: W
HStem: 0 21G<125 375> 416 83<124.984 208.984 290.984 374.984>
VStem: 125 250<0 83 416 499> 209 82<83 416>
LayerCount: 2
Fore
SplineSet
375 750 m 25xe0
 250 750 l 25
 208.984 584 l 25
 291.016 584 l 25
 375 750 l 25xe0
125 0 m 29
 125 83 l 29xe0
 209 83 l 29
 208.984 416 l 29
 124.984 416 l 29
 124.984 499 l 29
 374.984 499 l 29
 374.984 416 l 29
 290.984 416 l 29
 291 83 l 29xd0
 375 83 l 29
 375 0 l 29
 125 0 l 29
EndSplineSet
EndChar

StartChar: Icircumflex
Encoding: 206 206 206
Width: 500
VWidth: 0
Flags: HW
HStem: 0 21G<41 459> 63 20G<41 459>
LayerCount: 2
Fore
SplineSet
125 583.984 m 25
 209 750 l 25
 291 750 l 25
 375 583.984 l 25
 291.016 584 l 25
 250 667 l 25
 208.984 584 l 25
 125 583.984 l 25
125 0 m 29
 125 83 l 29xe0
 209 83 l 29
 208.984 416 l 29
 124.984 416 l 29
 124.984 499 l 29
 374.984 499 l 29
 374.984 416 l 29
 290.984 416 l 29
 291 83 l 29xd0
 375 83 l 29
 375 0 l 29
 125 0 l 29
EndSplineSet
EndChar

StartChar: Idieresis
Encoding: 207 207 207
Width: 500
VWidth: 0
Flags: HW
HStem: 0 21G<41 459> 63 20G<41 459>
LayerCount: 2
Fore
SplineSet
283 627 m 0
 283 654.6 305.4 677 333 677 c 0
 360.6 677 383 654.6 383 627 c 0
 383 599.4 360.6 577 333 577 c 0
 305.4 577 283 599.4 283 627 c 0
114 627 m 0
 114 655.704 137.744 679 167 679 c 0
 196.256 679 220 655.704 220 627 c 0
 220 598.296 196.256 575 167 575 c 0
 137.744 575 114 598.296 114 627 c 0
125 0 m 25
 125 83 l 25xe0
 209 83 l 25
 208.984 416 l 25
 124.984 416 l 25
 124.984 499 l 25
 374.984 499 l 25
 374.984 416 l 25
 290.984 416 l 25
 291 83 l 25xd0
 375 83 l 25
 375 0 l 25
 125 0 l 25
EndSplineSet
EndChar

StartChar: Eth
Encoding: 208 208 208
Width: 500
VWidth: 0
Flags: HW
HStem: 0 21G<41.984 459.984> 63 20G<41.984 459.984>
LayerCount: 2
Fore
SplineSet
208.984 584 m 9
 208.984 375 l 25
 291.016 375 l 25
 291.016 292 l 25
 208.984 292 l 17
 208.984 83 l 1
 239.399 83.0025 267.22 83 291.016 83 c 3
 342.34 83 375 154.271 375 209.961 c 11
 375 306.696 375 361.265 375 458 c 19
 375 518.08 353.069 584 291.016 584 c 3
 269.117 584 241.333 583.996 208.984 584 c 9
41 291.992 m 25
 41 375 l 25
 125 375 l 25
 125 667 l 25
 189.746 667 232 666.992 291.016 667 c 0
 395.588 667.014 459 562.581 459 458.008 c 27
 459 361.27 459.014 306.699 459 209.961 c 0
 458.984 99 395.883 0 291.016 0 c 27
 226.27 0 189.746 0 125 0 c 25
 125 292 l 25
 41 291.992 l 25
EndSplineSet
EndChar

StartChar: Ntilde
Encoding: 209 209 209
Width: 500
VWidth: 0
Flags: HW
HStem: 0 21G<41 459> 63 20G<41 459>
LayerCount: 2
Fore
SplineSet
91 602.288 m 13xfb
 41 639.661 l 21
 41.0156 693.075 98.0479 750.042 167 750.042 c 31
 235.398 750.042 274 688.625 291.016 639.675 c 4
 297.944 619.746 317.63 602.288 344 602.288 c 31
 386.854 602.288 409 651.245 416 676.165 c 13
 459 639.661 l 21
 458.984 571.145 401.951 529.28 333 529.28 c 31
 264.317 529.28 233 580.045 208.984 640.564 c 4
 201.452 659.544 181.892 676.165 156 676.165 c 31
 114.883 676.165 96 639.661 91 602.288 c 13xfb
41 0 m 25
 41 503.016 l 25
 151 503.016 l 25
 375 83.0078 l 25
 375 503.016 l 25
 459 503.016 l 25
 459 0 l 25
 355 0 l 25
 125 420 l 25
 125 0 l 25
 41 0 l 25
EndSplineSet
EndChar

StartChar: Ograve
Encoding: 210 210 210
Width: 500
VWidth: 0
Flags: HW
HStem: 0 21G<41 459> 63 20G<41 459>
LayerCount: 2
Fore
SplineSet
125 750 m 25
 250 750 l 25
 291.016 584 l 25
 208.984 584 l 25
 125 750 l 25
291.016 418 m 14
 209.016 418 l 22
 169.016 418 125.016 382.008 125.016 292.008 c 14
 125 210 l 22
 124.982 120 169 83 209 83 c 14
 291 83 l 22
 331 83 374.982 120 375 210 c 14
 375.016 292.008 l 22
 375.016 382.008 331.016 418 291.016 418 c 14
41 210 m 14
 41.0156 292.008 l 22
 41.0156 382.008 85.0156 501 125.016 501 c 14
 375.016 501 l 22
 415.016 501 459.016 382.008 459.016 292.008 c 14
 459 210 l 22
 458.982 120 415 0 375 0 c 14
 125 0 l 22
 85 0 40.9824 120 41 210 c 14
EndSplineSet
EndChar

StartChar: Oacute
Encoding: 211 211 211
Width: 500
VWidth: 0
Flags: HW
HStem: 0 21G<41 459> 63 20G<41 459>
LayerCount: 2
Fore
SplineSet
375 750 m 29
 250 750 l 29
 208.984 584 l 29
 291.016 584 l 29
 375 750 l 29
291.016 418 m 10
 209.016 418 l 18
 169.016 418 125.016 382.008 125.016 292.008 c 10
 125 210 l 18
 124.982 120 169 83 209 83 c 10
 291 83 l 18
 331 83 374.982 120 375 210 c 10
 375.016 292.008 l 18
 375.016 382.008 331.016 418 291.016 418 c 10
41 210 m 10
 41.0156 292.008 l 18
 41.0156 382.008 85.0156 501 125.016 501 c 10
 375.016 501 l 18
 415.016 501 459.016 382.008 459.016 292.008 c 10
 459 210 l 18
 458.982 120 415 0 375 0 c 10
 125 0 l 18
 85 0 40.9824 120 41 210 c 10
EndSplineSet
EndChar

StartChar: Ocircumflex
Encoding: 212 212 212
Width: 500
VWidth: 0
Flags: HW
HStem: 0 21G<41 459> 63 20G<41 459>
LayerCount: 2
Fore
SplineSet
125 583.984 m 29
 209 750 l 29
 291 750 l 29
 375 583.984 l 29
 291.016 584 l 29
 250 667 l 29
 208.984 584 l 29
 125 583.984 l 29
291.016 418 m 10
 209.016 418 l 18
 169.016 418 125.016 382.008 125.016 292.008 c 10
 125 210 l 18
 124.982 120 169 83 209 83 c 10
 291 83 l 18
 331 83 374.982 120 375 210 c 10
 375.016 292.008 l 18
 375.016 382.008 331.016 418 291.016 418 c 10
41 210 m 10
 41.0156 292.008 l 18
 41.0156 382.008 85.0156 501 125.016 501 c 10
 375.016 501 l 18
 415.016 501 459.016 382.008 459.016 292.008 c 10
 459 210 l 18
 458.982 120 415 0 375 0 c 10
 125 0 l 18
 85 0 40.9824 120 41 210 c 10
EndSplineSet
EndChar

StartChar: Otilde
Encoding: 213 213 213
Width: 500
VWidth: 0
Flags: HW
HStem: 0 21G<41 459> 63 20G<41 459>
LayerCount: 2
Fore
SplineSet
91 602.288 m 13xfb
 41 639.661 l 21
 41.0156 693.075 98.0479 750.042 167 750.042 c 31
 235.398 750.042 274 688.625 291.016 639.675 c 4
 297.944 619.746 317.63 602.288 344 602.288 c 31
 386.854 602.288 409 651.245 416 676.165 c 13
 459 639.661 l 21
 458.984 571.145 401.951 529.28 333 529.28 c 31
 264.317 529.28 233 580.045 208.984 640.564 c 4
 201.452 659.544 181.892 676.165 156 676.165 c 31
 114.883 676.165 96 639.661 91 602.288 c 13xfb
291.016 418 m 10
 209.016 418 l 18
 169.016 418 125.016 382.008 125.016 292.008 c 10
 125 210 l 18
 124.982 120 169 83 209 83 c 10
 291 83 l 18
 331 83 374.982 120 375 210 c 10
 375.016 292.008 l 18
 375.016 382.008 331.016 418 291.016 418 c 10
41 210 m 10
 41.0156 292.008 l 18
 41.0156 382.008 85.0156 501 125.016 501 c 10
 375.016 501 l 18
 415.016 501 459.016 382.008 459.016 292.008 c 10
 459 210 l 18
 458.982 120 415 0 375 0 c 10
 125 0 l 18
 85 0 40.9824 120 41 210 c 10
EndSplineSet
EndChar

StartChar: Odieresis
Encoding: 214 214 214
Width: 500
VWidth: 0
Flags: HWO
HStem: 0 21G<41 459> 63 20G<41 459>
LayerCount: 2
Fore
SplineSet
283 627 m 4
 283 654.6 305.4 677 333 677 c 4
 360.6 677 383 654.6 383 627 c 4
 383 599.4 360.6 577 333 577 c 4
 305.4 577 283 599.4 283 627 c 4
114 627 m 4
 114 655.704 137.744 679 167 679 c 4
 196.256 679 220 655.704 220 627 c 4
 220 598.296 196.256 575 167 575 c 4
 137.744 575 114 598.296 114 627 c 4
291.016 418 m 14
 209.016 418 l 22
 169.016 418 125.016 382.008 125.016 292.008 c 14
 125 210 l 22
 124.982 120 169 83 209 83 c 14
 291 83 l 22
 331 83 374.982 120 375 210 c 14
 375.016 292.008 l 22
 375.016 382.008 331.016 418 291.016 418 c 14
41 210 m 14
 41.0156 292.008 l 22
 41.0156 382.008 85.0156 501 125.016 501 c 14
 375.016 501 l 22
 415.016 501 459.016 382.008 459.016 292.008 c 14
 459 210 l 22
 458.982 120 415 0 375 0 c 14
 125 0 l 22
 85 0 40.9824 120 41 210 c 14
EndSplineSet
EndChar

StartChar: multiply
Encoding: 215 215 215
Width: 500
VWidth: 0
Flags: W
LayerCount: 2
Fore
SplineSet
102 128 m 1
 44 186 l 1
 192 334 l 1
 44 482 l 1
 102 540 l 1
 250 392 l 1
 398 540 l 1
 456 482 l 1
 308 334 l 1
 456 186 l 1
 398 128 l 1
 250 276 l 1
 102 128 l 1
EndSplineSet
EndChar

StartChar: Oslash
Encoding: 216 216 216
Width: 500
VWidth: 0
Flags: W
HStem: 0 21G<41 459> 63 20G<41 459>
LayerCount: 2
Fore
SplineSet
41 83 m 5
 459 83 l 5
 459 0 l 5
 41 0 l 5
 41 83 l 5
EndSplineSet
Validated: 1
EndChar

StartChar: Ugrave
Encoding: 217 217 217
Width: 500
VWidth: 0
Flags: W
HStem: 0 21G<41 459> 63 20G<41 459>
LayerCount: 2
Fore
SplineSet
41 83 m 5
 459 83 l 5
 459 0 l 5
 41 0 l 5
 41 83 l 5
EndSplineSet
Validated: 1
EndChar

StartChar: Uacute
Encoding: 218 218 218
Width: 500
VWidth: 0
Flags: W
HStem: 0 21G<41 459> 63 20G<41 459>
LayerCount: 2
Fore
SplineSet
41 83 m 5
 459 83 l 5
 459 0 l 5
 41 0 l 5
 41 83 l 5
EndSplineSet
Validated: 1
EndChar

StartChar: Ucircumflex
Encoding: 219 219 219
Width: 500
VWidth: 0
Flags: W
HStem: 0 21G<41 459> 63 20G<41 459>
LayerCount: 2
Fore
SplineSet
41 83 m 5
 459 83 l 5
 459 0 l 5
 41 0 l 5
 41 83 l 5
EndSplineSet
Validated: 1
EndChar

StartChar: Udieresis
Encoding: 220 220 220
Width: 500
VWidth: 0
Flags: W
HStem: 0 21G<41 459> 63 20G<41 459>
LayerCount: 2
Fore
SplineSet
41 83 m 5
 459 83 l 5
 459 0 l 5
 41 0 l 5
 41 83 l 5
EndSplineSet
Validated: 1
EndChar

StartChar: Yacute
Encoding: 221 221 221
Width: 500
VWidth: 0
Flags: W
HStem: 0 21G<41 459> 63 20G<41 459>
LayerCount: 2
Fore
SplineSet
41 83 m 5
 459 83 l 5
 459 0 l 5
 41 0 l 5
 41 83 l 5
EndSplineSet
Validated: 1
EndChar

StartChar: Thorn
Encoding: 222 222 222
Width: 500
VWidth: 0
Flags: W
HStem: 0 21G<41 459> 63 20G<41 459>
LayerCount: 2
Fore
SplineSet
41 83 m 5
 459 83 l 5
 459 0 l 5
 41 0 l 5
 41 83 l 5
EndSplineSet
Validated: 1
EndChar

StartChar: germandbls
Encoding: 223 223 223
Width: 500
VWidth: 0
Flags: W
HStem: 0 21G<41 459> 63 20G<41 459>
LayerCount: 2
Fore
SplineSet
41 83 m 5
 459 83 l 5
 459 0 l 5
 41 0 l 5
 41 83 l 5
EndSplineSet
Validated: 1
EndChar

StartChar: agrave
Encoding: 224 224 224
Width: 500
VWidth: 0
Flags: W
HStem: 0 21G<41 459> 63 20G<41 459>
LayerCount: 2
Fore
SplineSet
41 83 m 5
 459 83 l 5
 459 0 l 5
 41 0 l 5
 41 83 l 5
EndSplineSet
Validated: 1
EndChar

StartChar: aacute
Encoding: 225 225 225
Width: 500
VWidth: 0
Flags: W
HStem: 0 21G<41 459> 63 20G<41 459>
LayerCount: 2
Fore
SplineSet
41 83 m 5
 459 83 l 5
 459 0 l 5
 41 0 l 5
 41 83 l 5
EndSplineSet
Validated: 1
EndChar

StartChar: acircumflex
Encoding: 226 226 226
Width: 500
VWidth: 0
Flags: W
HStem: 0 21G<41 459> 63 20G<41 459>
LayerCount: 2
Fore
SplineSet
41 83 m 5
 459 83 l 5
 459 0 l 5
 41 0 l 5
 41 83 l 5
EndSplineSet
Validated: 1
EndChar

StartChar: atilde
Encoding: 227 227 227
Width: 500
VWidth: 0
Flags: W
HStem: 0 21G<41 459> 63 20G<41 459>
LayerCount: 2
Fore
SplineSet
41 83 m 5
 459 83 l 5
 459 0 l 5
 41 0 l 5
 41 83 l 5
EndSplineSet
Validated: 1
EndChar

StartChar: adieresis
Encoding: 228 228 228
Width: 500
VWidth: 0
Flags: W
HStem: 0 21G<41 459> 63 20G<41 459>
LayerCount: 2
Fore
SplineSet
41 83 m 5
 459 83 l 5
 459 0 l 5
 41 0 l 5
 41 83 l 5
EndSplineSet
Validated: 1
EndChar

StartChar: aring
Encoding: 229 229 229
Width: 500
VWidth: 0
Flags: W
HStem: 0 21G<41 459> 63 20G<41 459>
LayerCount: 2
Fore
SplineSet
41 83 m 5
 459 83 l 5
 459 0 l 5
 41 0 l 5
 41 83 l 5
EndSplineSet
Validated: 1
EndChar

StartChar: ae
Encoding: 230 230 230
Width: 500
VWidth: 0
Flags: W
HStem: 0 21G<41 459> 63 20G<41 459>
LayerCount: 2
Fore
SplineSet
41 83 m 5
 459 83 l 5
 459 0 l 5
 41 0 l 5
 41 83 l 5
EndSplineSet
Validated: 1
EndChar

StartChar: ccedilla
Encoding: 231 231 231
Width: 500
VWidth: 0
Flags: W
HStem: 0 21G<41 459> 63 20G<41 459>
LayerCount: 2
Fore
SplineSet
41 83 m 5
 459 83 l 5
 459 0 l 5
 41 0 l 5
 41 83 l 5
EndSplineSet
Validated: 1
EndChar

StartChar: egrave
Encoding: 232 232 232
Width: 500
VWidth: 0
Flags: W
HStem: 0 21G<41 459> 63 20G<41 459>
LayerCount: 2
Fore
SplineSet
41 83 m 5
 459 83 l 5
 459 0 l 5
 41 0 l 5
 41 83 l 5
EndSplineSet
Validated: 1
EndChar

StartChar: eacute
Encoding: 233 233 233
Width: 500
VWidth: 0
Flags: W
HStem: 0 21G<41 459> 63 20G<41 459>
LayerCount: 2
Fore
SplineSet
41 83 m 5
 459 83 l 5
 459 0 l 5
 41 0 l 5
 41 83 l 5
EndSplineSet
Validated: 1
EndChar

StartChar: ecircumflex
Encoding: 234 234 234
Width: 500
VWidth: 0
Flags: W
HStem: 0 21G<41 459> 63 20G<41 459>
LayerCount: 2
Fore
SplineSet
41 83 m 5
 459 83 l 5
 459 0 l 5
 41 0 l 5
 41 83 l 5
EndSplineSet
Validated: 1
EndChar

StartChar: edieresis
Encoding: 235 235 235
Width: 500
VWidth: 0
Flags: W
HStem: 0 21G<41 459> 63 20G<41 459>
LayerCount: 2
Fore
SplineSet
41 83 m 5
 459 83 l 5
 459 0 l 5
 41 0 l 5
 41 83 l 5
EndSplineSet
Validated: 1
EndChar

StartChar: igrave
Encoding: 236 236 236
Width: 500
VWidth: 0
Flags: W
HStem: 0 21G<41 459> 63 20G<41 459>
LayerCount: 2
Fore
SplineSet
41 83 m 5
 459 83 l 5
 459 0 l 5
 41 0 l 5
 41 83 l 5
EndSplineSet
Validated: 1
EndChar

StartChar: iacute
Encoding: 237 237 237
Width: 500
VWidth: 0
Flags: W
HStem: 0 21G<41 459> 63 20G<41 459>
LayerCount: 2
Fore
SplineSet
41 83 m 5
 459 83 l 5
 459 0 l 5
 41 0 l 5
 41 83 l 5
EndSplineSet
Validated: 1
EndChar

StartChar: icircumflex
Encoding: 238 238 238
Width: 500
VWidth: 0
Flags: W
HStem: 0 21G<41 459> 63 20G<41 459>
LayerCount: 2
Fore
SplineSet
41 83 m 5
 459 83 l 5
 459 0 l 5
 41 0 l 5
 41 83 l 5
EndSplineSet
Validated: 1
EndChar

StartChar: idieresis
Encoding: 239 239 239
Width: 500
VWidth: 0
Flags: W
HStem: 0 21G<41 459> 63 20G<41 459>
LayerCount: 2
Fore
SplineSet
41 83 m 5
 459 83 l 5
 459 0 l 5
 41 0 l 5
 41 83 l 5
EndSplineSet
Validated: 1
EndChar

StartChar: eth
Encoding: 240 240 240
Width: 500
VWidth: 0
Flags: W
HStem: 0 21G<41 459> 63 20G<41 459>
LayerCount: 2
Fore
SplineSet
41 83 m 5
 459 83 l 5
 459 0 l 5
 41 0 l 5
 41 83 l 5
EndSplineSet
Validated: 1
EndChar

StartChar: ntilde
Encoding: 241 241 241
Width: 500
VWidth: 0
Flags: W
HStem: 0 21G<41 459> 63 20G<41 459>
LayerCount: 2
Fore
SplineSet
41 83 m 5
 459 83 l 5
 459 0 l 5
 41 0 l 5
 41 83 l 5
EndSplineSet
Validated: 1
EndChar

StartChar: ograve
Encoding: 242 242 242
Width: 500
VWidth: 0
Flags: W
HStem: 0 21G<41 459> 63 20G<41 459>
LayerCount: 2
Fore
SplineSet
41 83 m 5
 459 83 l 5
 459 0 l 5
 41 0 l 5
 41 83 l 5
EndSplineSet
Validated: 1
EndChar

StartChar: oacute
Encoding: 243 243 243
Width: 500
VWidth: 0
Flags: W
HStem: 0 21G<41 459> 63 20G<41 459>
LayerCount: 2
Fore
SplineSet
41 83 m 5
 459 83 l 5
 459 0 l 5
 41 0 l 5
 41 83 l 5
EndSplineSet
Validated: 1
EndChar

StartChar: ocircumflex
Encoding: 244 244 244
Width: 500
VWidth: 0
Flags: W
HStem: 0 21G<41 459> 63 20G<41 459>
LayerCount: 2
Fore
SplineSet
41 83 m 5
 459 83 l 5
 459 0 l 5
 41 0 l 5
 41 83 l 5
EndSplineSet
Validated: 1
EndChar

StartChar: otilde
Encoding: 245 245 245
Width: 500
VWidth: 0
Flags: W
HStem: 0 21G<41 459> 63 20G<41 459>
LayerCount: 2
Fore
SplineSet
41 83 m 5
 459 83 l 5
 459 0 l 5
 41 0 l 5
 41 83 l 5
EndSplineSet
Validated: 1
EndChar

StartChar: odieresis
Encoding: 246 246 246
Width: 500
VWidth: 0
Flags: W
HStem: 0 21G<41 459> 63 20G<41 459>
LayerCount: 2
Fore
SplineSet
41 83 m 5
 459 83 l 5
 459 0 l 5
 41 0 l 5
 41 83 l 5
EndSplineSet
Validated: 1
EndChar

StartChar: divide
Encoding: 247 247 247
Width: 500
VWidth: 0
Flags: HW
HStem: 0 21G<41 459> 63 20G<41 459>
LayerCount: 2
Fore
SplineSet
201 175 m 0
 201 202.048 222.952 224 250 224 c 0
 277.048 224 299 202.048 299 175 c 0
 299 147.952 277.048 126 250 126 c 0
 222.952 126 201 147.952 201 175 c 0
201 491 m 0
 201 518.048 222.952 540 250 540 c 0
 277.048 540 299 518.048 299 491 c 0
 299 463.952 277.048 442 250 442 c 0
 222.952 442 201 463.952 201 491 c 0
41 375 m 1
 459 375 l 1
 459 292 l 1
 41 292 l 1
 41 375 l 1
EndSplineSet
EndChar

StartChar: oslash
Encoding: 248 248 248
Width: 500
VWidth: 0
Flags: W
HStem: 0 21G<41 459> 63 20G<41 459>
LayerCount: 2
Fore
SplineSet
41 83 m 5
 459 83 l 5
 459 0 l 5
 41 0 l 5
 41 83 l 5
EndSplineSet
Validated: 1
EndChar

StartChar: ugrave
Encoding: 249 249 249
Width: 500
VWidth: 0
Flags: W
HStem: 0 21G<41 459> 63 20G<41 459>
LayerCount: 2
Fore
SplineSet
41 83 m 5
 459 83 l 5
 459 0 l 5
 41 0 l 5
 41 83 l 5
EndSplineSet
Validated: 1
EndChar

StartChar: uacute
Encoding: 250 250 250
Width: 500
VWidth: 0
Flags: W
HStem: 0 21G<41 459> 63 20G<41 459>
LayerCount: 2
Fore
SplineSet
41 83 m 5
 459 83 l 5
 459 0 l 5
 41 0 l 5
 41 83 l 5
EndSplineSet
Validated: 1
EndChar

StartChar: ucircumflex
Encoding: 251 251 251
Width: 500
VWidth: 0
Flags: W
HStem: 0 21G<41 459> 63 20G<41 459>
LayerCount: 2
Fore
SplineSet
41 83 m 5
 459 83 l 5
 459 0 l 5
 41 0 l 5
 41 83 l 5
EndSplineSet
Validated: 1
EndChar

StartChar: udieresis
Encoding: 252 252 252
Width: 500
VWidth: 0
Flags: W
HStem: 0 21G<41 459> 63 20G<41 459>
LayerCount: 2
Fore
SplineSet
41 83 m 5
 459 83 l 5
 459 0 l 5
 41 0 l 5
 41 83 l 5
EndSplineSet
Validated: 1
EndChar

StartChar: yacute
Encoding: 253 253 253
Width: 500
VWidth: 0
Flags: W
HStem: 0 21G<41 459> 63 20G<41 459>
LayerCount: 2
Fore
SplineSet
41 83 m 5
 459 83 l 5
 459 0 l 5
 41 0 l 5
 41 83 l 5
EndSplineSet
Validated: 1
EndChar

StartChar: thorn
Encoding: 254 254 254
Width: 500
VWidth: 0
Flags: W
HStem: 0 21G<41 459> 63 20G<41 459>
LayerCount: 2
Fore
SplineSet
41 83 m 5
 459 83 l 5
 459 0 l 5
 41 0 l 5
 41 83 l 5
EndSplineSet
Validated: 1
EndChar

StartChar: ydieresis
Encoding: 255 255 255
Width: 500
VWidth: 0
Flags: W
HStem: 0 21G<41 459> 63 20G<41 459>
LayerCount: 2
Fore
SplineSet
41 83 m 5
 459 83 l 5
 459 0 l 5
 41 0 l 5
 41 83 l 5
EndSplineSet
Validated: 1
EndChar

StartChar: arrowright
Encoding: 8594 8594 256
Width: 500
VWidth: 0
Flags: H
LayerCount: 2
Fore
SplineSet
41 291.992 m 29
 41 375 l 29
 291.016 375 l 29
 291.016 458 l 29
 459 375 l 29
 459 291.992 l 29
 291 209.961 l 29
 291.016 292 l 29
 41 291.992 l 29
EndSplineSet
EndChar

StartChar: ltshade
Encoding: 9617 9617 258
Width: 500
VWidth: 0
Flags: H
LayerCount: 2
Fore
SplineSet
418 83.0078 m 1
 459 83.0078 l 1
 459 43.0156 l 1
 418 43.0156 l 1
 418 83.0078 l 1
334 83.0078 m 1
 375 83.0078 l 1
 375 43.0156 l 1
 334 43.0156 l 1
 334 83.0078 l 1
250 83.0078 m 1
 291 83.0078 l 1
 291 43.0156 l 1
 250 43.0156 l 1
 250 83.0078 l 1
168 83.0078 m 1
 209 83.0078 l 1
 209 43.0156 l 1
 168 43.0156 l 1
 168 83.0078 l 1
84 83.0078 m 1
 125 83.0078 l 1
 125 43.0156 l 1
 84 43.0156 l 1
 84 83.0078 l 1
375.016 166.008 m 1
 416.016 166.008 l 1
 416.016 126.016 l 1
 375.016 126.016 l 1
 375.016 166.008 l 1
291.016 166.008 m 1
 332.016 166.008 l 1
 332.016 126.016 l 1
 291.016 126.016 l 1
 291.016 166.008 l 1
209.016 166.008 m 1
 250.016 166.008 l 1
 250.016 126.016 l 1
 209.016 126.016 l 1
 209.016 166.008 l 1
125.016 166.008 m 1
 166.016 166.008 l 1
 166.016 126.016 l 1
 125.016 126.016 l 1
 125.016 166.008 l 1
41.0156 166.008 m 1
 82.0156 166.008 l 1
 82.0156 126.016 l 1
 41.0156 126.016 l 1
 41.0156 166.008 l 1
417.984 250.984 m 1
 458.984 250.984 l 1
 458.984 209.992 l 1
 417.984 209.992 l 1
 417.984 250.984 l 1
333.984 250.984 m 1
 374.984 250.984 l 1
 374.984 209.992 l 1
 333.984 209.992 l 1
 333.984 250.984 l 1
250 249.953 m 1
 291 249.953 l 1
 291 209.961 l 1
 250 209.961 l 1
 250 249.953 l 1
167.984 250.984 m 1
 208.984 250.984 l 1
 208.984 209.992 l 1
 167.984 209.992 l 1
 167.984 250.984 l 1
83.9844 250.984 m 1
 124.984 250.984 l 1
 124.984 209.992 l 1
 83.9844 209.992 l 1
 83.9844 250.984 l 1
375 333.984 m 1
 416 333.984 l 1
 416 291.992 l 1
 375 291.992 l 1
 375 333.984 l 1
291 333.984 m 1
 332 333.984 l 1
 332 291.992 l 1
 291 291.992 l 1
 291 333.984 l 1
209 333.984 m 1
 250 333.984 l 1
 250 291.992 l 1
 209 291.992 l 1
 209 333.984 l 1
125 333.984 m 1
 166 333.984 l 1
 166 291.992 l 1
 125 291.992 l 1
 125 333.984 l 1
41 333.984 m 1
 82 333.984 l 1
 82 291.992 l 1
 41 291.992 l 1
 41 333.984 l 1
418 414.992 m 1
 459 414.992 l 1
 459 375 l 1
 418 375 l 1
 418 414.992 l 1
334 414.992 m 1
 375 414.992 l 1
 375 375 l 1
 334 375 l 1
 334 414.992 l 1
250.016 414.992 m 1
 291.016 414.992 l 1
 291.016 375 l 1
 250.016 375 l 1
 250.016 414.992 l 1
168 414.992 m 1
 209 414.992 l 1
 209 375 l 1
 168 375 l 1
 168 414.992 l 1
84 414.992 m 1
 125 414.992 l 1
 125 375 l 1
 84 375 l 1
 84 414.992 l 1
375 498 m 1
 416 498 l 1
 416 458.008 l 1
 375 458.008 l 1
 375 498 l 1
291 498 m 1
 332 498 l 1
 332 458.008 l 1
 291 458.008 l 1
 291 498 l 1
209 498 m 1
 250 498 l 1
 250 458.008 l 1
 209 458.008 l 1
 209 498 l 1
125 498 m 1
 166 498 l 1
 166 458.008 l 1
 125 458.008 l 1
 125 498 l 1
41 498 m 1
 82 498 l 1
 82 458.008 l 1
 41 458.008 l 1
 41 498 l 1
417.984 583.992 m 1
 458.984 583.992 l 1
 458.984 544 l 1
 417.984 544 l 1
 417.984 583.992 l 1
333.984 583.992 m 1
 374.984 583.992 l 1
 374.984 544 l 1
 333.984 544 l 1
 333.984 583.992 l 1
250.016 583.992 m 1
 291.016 583.992 l 1
 291.016 544 l 1
 250.016 544 l 1
 250.016 583.992 l 1
167.984 583.992 m 1
 208.984 583.992 l 1
 208.984 544 l 1
 167.984 544 l 1
 167.984 583.992 l 1
83.9844 583.992 m 1
 124.984 583.992 l 1
 124.984 544 l 1
 83.9844 544 l 1
 83.9844 583.992 l 1
375 666.992 m 1
 416 666.992 l 1
 416 627 l 1
 375 627 l 1
 375 666.992 l 1
291 666.992 m 1
 332 666.992 l 1
 332 627 l 1
 291 627 l 1
 291 666.992 l 1
209 666.992 m 1
 250 666.992 l 1
 250 627 l 1
 209 627 l 1
 209 666.992 l 1
125 666.992 m 1
 166 666.992 l 1
 166 627 l 1
 125 627 l 1
 125 666.992 l 1
41 666.992 m 5
 82 666.992 l 5
 82 627 l 5
 41 627 l 5
 41 666.992 l 5
EndSplineSet
EndChar

StartChar: shade
Encoding: 9618 9618 259
Width: 500
VWidth: 0
Flags: HW
LayerCount: 2
Fore
SplineSet
418.016 40.9688 m 1
 459.016 40.9688 l 1
 459.016 0.976562 l 1
 418.016 0.976562 l 1
 418.016 40.9688 l 1
334.016 40.9688 m 1
 375.016 40.9688 l 1
 375.016 0.976562 l 1
 334.016 0.976562 l 1
 334.016 40.9688 l 1
250.016 40.9688 m 1
 291.016 40.9688 l 1
 291.016 0.976562 l 1
 250.016 0.976562 l 1
 250.016 40.9688 l 1
168.016 40.9688 m 1
 209.016 40.9688 l 1
 209.016 0.976562 l 1
 168.016 0.976562 l 1
 168.016 40.9688 l 1
84.0156 40.9688 m 1
 125.016 40.9688 l 1
 125.016 0.976562 l 1
 84.0156 0.976562 l 1
 84.0156 40.9688 l 1
375.016 83.9844 m 1
 416.016 83.9844 l 1
 416.016 43.9922 l 1
 375.016 43.9922 l 1
 375.016 83.9844 l 1
291.016 83.9844 m 1
 332.016 83.9844 l 1
 332.016 43.9922 l 1
 291.016 43.9922 l 1
 291.016 83.9844 l 1
209.016 83.9844 m 1
 250.016 83.9844 l 1
 250.016 43.9922 l 1
 209.016 43.9922 l 1
 209.016 83.9844 l 1
125.016 83.9844 m 1
 166.016 83.9844 l 1
 166.016 43.9922 l 1
 125.016 43.9922 l 1
 125.016 83.9844 l 1
41.0156 83.9844 m 1
 82.0156 83.9844 l 1
 82.0156 43.9922 l 1
 41.0156 43.9922 l 1
 41.0156 83.9844 l 1
418.016 123.977 m 1
 459.016 123.977 l 1
 459.016 83.9844 l 1
 418.016 83.9844 l 1
 418.016 123.977 l 1
334.016 123.977 m 1
 375.016 123.977 l 1
 375.016 83.9844 l 1
 334.016 83.9844 l 1
 334.016 123.977 l 1
250.016 123.977 m 1
 291.016 123.977 l 1
 291.016 83.9844 l 1
 250.016 83.9844 l 1
 250.016 123.977 l 1
168.016 123.977 m 1
 209.016 123.977 l 1
 209.016 83.9844 l 1
 168.016 83.9844 l 1
 168.016 123.977 l 1
84.0156 123.977 m 1
 125.016 123.977 l 1
 125.016 83.9844 l 1
 84.0156 83.9844 l 1
 84.0156 123.977 l 1
375.016 166.992 m 1
 416.016 166.992 l 1
 416.016 127 l 1
 375.016 127 l 1
 375.016 166.992 l 1
291.016 166.992 m 1
 332.016 166.992 l 1
 332.016 127 l 1
 291.016 127 l 1
 291.016 166.992 l 1
209.016 166.992 m 1
 250.016 166.992 l 1
 250.016 127 l 1
 209.016 127 l 1
 209.016 166.992 l 1
125.016 166.992 m 1
 166.016 166.992 l 1
 166.016 127 l 1
 125.016 127 l 1
 125.016 166.992 l 1
41.0156 166.992 m 1
 82.0156 166.992 l 1
 82.0156 127 l 1
 41.0156 127 l 1
 41.0156 166.992 l 1
418 207.961 m 1
 459 207.961 l 1
 459 167.969 l 1
 418 167.969 l 1
 418 207.961 l 1
334 207.961 m 1
 375 207.961 l 1
 375 167.969 l 1
 334 167.969 l 1
 334 207.961 l 1
250 207.961 m 1
 291 207.961 l 1
 291 167.969 l 1
 250 167.969 l 1
 250 207.961 l 1
168 207.961 m 1
 209 207.961 l 1
 209 167.969 l 1
 168 167.969 l 1
 168 207.961 l 1
84 207.961 m 1
 125 207.961 l 1
 125 167.969 l 1
 84 167.969 l 1
 84 207.961 l 1
375 250.977 m 1
 416 250.977 l 1
 416 210.984 l 1
 375 210.984 l 1
 375 250.977 l 1
291 250.977 m 1
 332 250.977 l 1
 332 210.984 l 1
 291 210.984 l 1
 291 250.977 l 1
209 250.977 m 1
 250 250.977 l 1
 250 210.984 l 1
 209 210.984 l 1
 209 250.977 l 1
125 250.977 m 1
 166 250.977 l 1
 166 210.984 l 1
 125 210.984 l 1
 125 250.977 l 1
41 250.977 m 1
 82 250.977 l 1
 82 210.984 l 1
 41 210.984 l 1
 41 250.977 l 1
418 290.969 m 1
 459 290.969 l 1
 459 250.977 l 1
 418 250.977 l 1
 418 290.969 l 1
334 290.969 m 1
 375 290.969 l 1
 375 250.977 l 1
 334 250.977 l 1
 334 290.969 l 1
250 290.969 m 1
 291 290.969 l 1
 291 250.977 l 1
 250 250.977 l 1
 250 290.969 l 1
168 290.969 m 1
 209 290.969 l 1
 209 250.977 l 1
 168 250.977 l 1
 168 290.969 l 1
84 290.969 m 1
 125 290.969 l 1
 125 250.977 l 1
 84 250.977 l 1
 84 290.969 l 1
375 333.984 m 1
 416 333.984 l 1
 416 293.992 l 1
 375 293.992 l 1
 375 333.984 l 1
291 333.984 m 1
 332 333.984 l 1
 332 293.992 l 1
 291 293.992 l 1
 291 333.984 l 1
209 333.984 m 1
 250 333.984 l 1
 250 293.992 l 1
 209 293.992 l 1
 209 333.984 l 1
125 333.984 m 1
 166 333.984 l 1
 166 293.992 l 1
 125 293.992 l 1
 125 333.984 l 1
41 333.984 m 1
 82 333.984 l 1
 82 293.992 l 1
 41 293.992 l 1
 41 333.984 l 1
418.016 373.977 m 1
 459.016 373.977 l 1
 459.016 333.984 l 1
 418.016 333.984 l 1
 418.016 373.977 l 1
334.016 373.977 m 1
 375.016 373.977 l 1
 375.016 333.984 l 1
 334.016 333.984 l 1
 334.016 373.977 l 1
250.016 373.977 m 1
 291.016 373.977 l 1
 291.016 333.984 l 1
 250.016 333.984 l 1
 250.016 373.977 l 1
168.016 373.977 m 1
 209.016 373.977 l 1
 209.016 333.984 l 1
 168.016 333.984 l 1
 168.016 373.977 l 1
84.0156 373.977 m 1
 125.016 373.977 l 1
 125.016 333.984 l 1
 84.0156 333.984 l 1
 84.0156 373.977 l 1
375.016 416.992 m 1
 416.016 416.992 l 1
 416.016 377 l 1
 375.016 377 l 1
 375.016 416.992 l 1
291.016 416.992 m 1
 332.016 416.992 l 1
 332.016 377 l 1
 291.016 377 l 1
 291.016 416.992 l 1
209.016 416.992 m 1
 250.016 416.992 l 1
 250.016 377 l 1
 209.016 377 l 1
 209.016 416.992 l 1
125.016 416.992 m 1
 166.016 416.992 l 1
 166.016 377 l 1
 125.016 377 l 1
 125.016 416.992 l 1
41.0156 416.992 m 1
 82.0156 416.992 l 1
 82.0156 377 l 1
 41.0156 377 l 1
 41.0156 416.992 l 1
418.016 456.984 m 1
 459.016 456.984 l 1
 459.016 416.992 l 1
 418.016 416.992 l 1
 418.016 456.984 l 1
334.016 456.984 m 1
 375.016 456.984 l 1
 375.016 416.992 l 1
 334.016 416.992 l 1
 334.016 456.984 l 1
250.016 456.984 m 1
 291.016 456.984 l 1
 291.016 416.992 l 1
 250.016 416.992 l 1
 250.016 456.984 l 1
168.016 456.984 m 1
 209.016 456.984 l 1
 209.016 416.992 l 1
 168.016 416.992 l 1
 168.016 456.984 l 1
84.0156 456.984 m 1
 125.016 456.984 l 1
 125.016 416.992 l 1
 84.0156 416.992 l 1
 84.0156 456.984 l 1
375.016 500 m 1
 416.016 500 l 1
 416.016 460.008 l 1
 375.016 460.008 l 1
 375.016 500 l 1
291.016 500 m 1
 332.016 500 l 1
 332.016 460.008 l 1
 291.016 460.008 l 1
 291.016 500 l 1
209.016 500 m 1
 250.016 500 l 1
 250.016 460.008 l 1
 209.016 460.008 l 1
 209.016 500 l 1
125.016 500 m 1
 166.016 500 l 1
 166.016 460.008 l 1
 125.016 460.008 l 1
 125.016 500 l 1
41.0156 500 m 1
 82.0156 500 l 1
 82.0156 460.008 l 1
 41.0156 460.008 l 1
 41.0156 500 l 1
418 540.969 m 1
 459 540.969 l 1
 459 500.977 l 1
 418 500.977 l 1
 418 540.969 l 1
334 540.969 m 1
 375 540.969 l 1
 375 500.977 l 1
 334 500.977 l 1
 334 540.969 l 1
250 540.969 m 1
 291 540.969 l 1
 291 500.977 l 1
 250 500.977 l 1
 250 540.969 l 1
168 540.969 m 1
 209 540.969 l 1
 209 500.977 l 1
 168 500.977 l 1
 168 540.969 l 1
84 540.969 m 1
 125 540.969 l 1
 125 500.977 l 1
 84 500.977 l 1
 84 540.969 l 1
375 583.984 m 1
 416 583.984 l 1
 416 543.992 l 1
 375 543.992 l 1
 375 583.984 l 1
291 583.984 m 1
 332 583.984 l 1
 332 543.992 l 1
 291 543.992 l 1
 291 583.984 l 1
209 583.984 m 1
 250 583.984 l 1
 250 543.992 l 1
 209 543.992 l 1
 209 583.984 l 1
125 583.984 m 1
 166 583.984 l 1
 166 543.992 l 1
 125 543.992 l 1
 125 583.984 l 1
41 583.984 m 1
 82 583.984 l 1
 82 543.992 l 1
 41 543.992 l 1
 41 583.984 l 1
418 623.977 m 1
 459 623.977 l 1
 459 583.984 l 1
 418 583.984 l 1
 418 623.977 l 1
334 623.977 m 1
 375 623.977 l 1
 375 583.984 l 1
 334 583.984 l 1
 334 623.977 l 1
250 623.977 m 1
 291 623.977 l 1
 291 583.984 l 1
 250 583.984 l 1
 250 623.977 l 1
168 623.977 m 1
 209 623.977 l 1
 209 583.984 l 1
 168 583.984 l 1
 168 623.977 l 1
84 623.977 m 1
 125 623.977 l 1
 125 583.984 l 1
 84 583.984 l 1
 84 623.977 l 1
375 666.992 m 1
 416 666.992 l 1
 416 627 l 1
 375 627 l 1
 375 666.992 l 1
291 666.992 m 1
 332 666.992 l 1
 332 627 l 1
 291 627 l 1
 291 666.992 l 1
209 666.992 m 1
 250 666.992 l 1
 250 627 l 1
 209 627 l 1
 209 666.992 l 1
125 666.992 m 1
 166 666.992 l 1
 166 627 l 1
 125 627 l 1
 125 666.992 l 1
41 666.992 m 1
 82 666.992 l 1
 82 627 l 1
 41 627 l 1
 41 666.992 l 1
EndSplineSet
EndChar

StartChar: dkshade
Encoding: 9619 9619 260
Width: 500
VWidth: 0
Flags: HW
LayerCount: 2
Fore
SplineSet
415.984 334.008 m 1
 374.984 334.008 l 1
 374.984 292.016 l 1
 415.984 292.016 l 1
 415.984 334.008 l 1
332 334.008 m 1
 291 334.008 l 1
 291 292.016 l 1
 332 292.016 l 1
 332 334.008 l 1
249.984 334.008 m 1
 208.984 334.008 l 1
 208.984 292.016 l 1
 249.984 292.016 l 1
 249.984 334.008 l 1
165.984 334.008 m 1
 124.984 334.008 l 1
 124.984 292.016 l 1
 165.984 292.016 l 1
 165.984 334.008 l 1
165.984 417.992 m 1
 124.984 417.992 l 1
 124.984 375 l 1
 165.984 375 l 1
 165.984 417.992 l 1
249.984 417.992 m 1
 208.984 417.992 l 1
 208.984 375 l 1
 249.984 375 l 1
 249.984 417.992 l 1
332 417.992 m 1
 291 417.992 l 1
 291 375 l 1
 332 375 l 1
 332 417.992 l 1
415.984 417.992 m 1
 374.984 417.992 l 1
 374.984 375 l 1
 415.984 375 l 1
 415.984 417.992 l 1
165.984 501 m 1
 124.984 501 l 1
 124.984 458.008 l 1
 165.984 458.008 l 1
 165.984 501 l 1
249.984 501 m 1
 208.984 501 l 1
 208.984 458.008 l 1
 249.984 458.008 l 1
 249.984 501 l 1
332 501 m 1
 291 501 l 1
 291 458.008 l 1
 332 458.008 l 1
 332 501 l 1
415.984 501 m 1
 374.984 501 l 1
 374.984 458.008 l 1
 415.984 458.008 l 1
 415.984 501 l 1
165.984 584.008 m 1
 124.984 584.008 l 1
 124.984 544.016 l 1
 165.984 544.016 l 1
 165.984 584.008 l 1
249.984 584.008 m 1
 208.984 584.008 l 1
 208.984 544.016 l 1
 249.984 544.016 l 1
 249.984 584.008 l 1
332 584.008 m 1
 291 584.008 l 1
 291 544.016 l 1
 332 544.016 l 1
 332 584.008 l 1
415.984 584.008 m 1
 374.984 584.008 l 1
 374.984 544.016 l 1
 415.984 544.016 l 1
 415.984 584.008 l 1
165.984 83.0078 m 1
 124.984 83.0078 l 1
 124.984 41.0156 l 1
 165.984 41.0156 l 1
 165.984 83.0078 l 1
249.984 83.0078 m 1
 208.984 83.0078 l 1
 208.984 41.0156 l 1
 249.984 41.0156 l 1
 249.984 83.0078 l 1
332 83.0078 m 1
 291 83.0078 l 1
 291 41.0156 l 1
 332 41.0156 l 1
 332 83.0078 l 1
415.984 83.0078 m 1
 374.984 83.0078 l 1
 374.984 41.0156 l 1
 415.984 41.0156 l 1
 415.984 83.0078 l 1
165.984 167.016 m 1
 124.984 167.016 l 1
 124.984 124.023 l 1
 165.984 124.023 l 1
 165.984 167.016 l 1
249.984 167.016 m 1
 208.984 167.016 l 1
 208.984 124.023 l 1
 249.984 124.023 l 1
 249.984 167.016 l 1
332 167.016 m 1
 291 167.016 l 1
 291 124.023 l 1
 332 124.023 l 1
 332 167.016 l 1
415.984 167.016 m 1
 374.984 167.016 l 1
 374.984 124.023 l 1
 415.984 124.023 l 1
 415.984 167.016 l 1
165.984 250.023 m 1
 124.984 250.023 l 1
 124.984 210.031 l 1
 165.984 210.031 l 1
 165.984 250.023 l 1
249.984 250.023 m 1
 208.984 250.023 l 1
 208.984 210.031 l 1
 249.984 210.031 l 1
 249.984 250.023 l 1
332 250.023 m 1
 291 250.023 l 1
 291 210.031 l 1
 332 210.031 l 1
 332 250.023 l 1
415.984 250.023 m 1
 374.984 250.023 l 1
 374.984 210.031 l 1
 415.984 210.031 l 1
 415.984 250.023 l 1
41 292.016 m 1
 82 292.016 l 1
 82 333.984 l 1
 41 334.008 l 1
 41 375 l 1
 82 375 l 1
 82 417.992 l 1
 41 417.992 l 1
 41 458.008 l 1
 82 458.008 l 1
 82 501 l 1
 41 501 l 1
 41 544.016 l 1
 82 544.016 l 1
 82 584.008 l 1
 41 584.008 l 1
 41 627 l 1
 82 627 l 1
 82 666.992 l 1
 124.984 666.992 l 1
 124.984 627 l 1
 165.984 627 l 1
 165.984 666.992 l 1
 208.984 666.992 l 1
 208.984 627 l 1
 249.984 627 l 1
 249.984 666.992 l 1
 291 666.992 l 1
 291 627 l 1
 332 627 l 1
 332 666.992 l 1
 374.984 666.992 l 1
 374.984 627 l 1
 415.984 627 l 1
 415.984 666.992 l 1
 458.984 666.992 l 1
 458.984 584.008 l 1
 458.984 501 l 1
 458.984 417.992 l 1
 458.984 334.008 l 1
 458.984 250.023 l 1
 458.984 167.016 l 1
 458.984 83.0078 l 1
 458.984 0 l 1
 374.984 0 l 1
 291 0 l 1
 208.984 0 l 1
 124.984 0 l 1
 41 0 l 1
 41 41.0156 l 1
 82 41.0156 l 1
 82 83.0078 l 1
 41 83.0078 l 1
 41 124.023 l 1
 82 124.023 l 1
 82 167.016 l 1
 41 167.016 l 1
 41 210.031 l 1
 82 210.031 l 1
 82 250.023 l 1
 41 250.023 l 1
 41 292.016 l 1
EndSplineSet
EndChar

StartChar: quoteleft
Encoding: 8216 8216 262
Width: 500
VWidth: 0
Flags: W
HStem: 458 125<370 430>
VStem: 292 138<458 583 583 583> 292 78<583 683.816>
LayerCount: 2
Fore
SplineSet
370 583 m 1xa0
 430 583 l 1
 430 458 l 1
 292 458 l 1
 292 583 l 1xc0
 292 666 316 728 410 749 c 1
 386 714 370 646 370 583 c 1xa0
EndSplineSet
EndChar

StartChar: dagger
Encoding: 8224 8224 270
Width: 500
VWidth: 0
Flags: HW
LayerCount: 2
Fore
SplineSet
40.9844 417 m 29
 40.9844 500.008 l 29
 208.969 500.008 l 29
 208.984 667 l 29
 291.016 667 l 29
 291 500.008 l 29
 458.984 500.008 l 29
 458.984 417 l 29
 291 417.008 l 29
 291 -83 l 29
 208.969 -83 l 29
 208.969 417.008 l 29
 40.9844 417 l 29
EndSplineSet
EndChar

StartChar: daggerdbl
Encoding: 8225 8225 271
Width: 500
VWidth: 0
Flags: W
HStem: 132 77.961<40.9844 208.969 291 458.984> 417 83.0078<40.9844 208.969 291 458.984> 647 20G<208.969 291>
VStem: 208.969 82.0312<-83 132 209.961 417 500.008 667>
LayerCount: 2
Fore
SplineSet
40.9844 417 m 1
 40.9844 500.008 l 1
 208.969 500.008 l 1
 208.969 667 l 1
 291 667 l 1
 291 500.008 l 1
 458.984 500.008 l 1
 458.984 417 l 1
 291 417 l 1
 291 209.961 l 1
 458.984 209.961 l 1
 458.984 132 l 1
 291 132 l 1
 291 -83 l 1
 208.969 -83 l 1
 208.969 132 l 1
 40.9844 132 l 1
 40.9844 209.961 l 1
 208.969 209.961 l 1
 208.969 417 l 1
 40.9844 417 l 1
EndSplineSet
EndChar

StartChar: twodotenleader
Encoding: 8229 8229 273
Width: 500
VWidth: 0
Flags: H
LayerCount: 2
Fore
SplineSet
291 0.0078125 m 1
 291 83.0078 l 1
 375 83.0078 l 1
 375 0.0078125 l 1
 291 0.0078125 l 1
125 0.0078125 m 1
 125 83.0078 l 1
 208.984 83.0078 l 1
 208.984 0.0078125 l 1
 125 0.0078125 l 1
EndSplineSet
EndChar

StartChar: ellipsis
Encoding: 8230 8230 274
Width: 500
VWidth: 0
Flags: H
LayerCount: 2
Fore
SplineSet
375 83.0078 m 5
 458.984 83.0078 l 5
 458.984 0 l 5
 375 0 l 5
 375 83.0078 l 5
208.984 83 m 1
 291.016 83 l 1
 291.016 0 l 1
 208.984 0 l 1
 208.984 83 l 1
41 83.0078 m 1
 125 83.0078 l 1
 125 0 l 1
 41 0 l 1
 41 83.0078 l 1
EndSplineSet
EndChar

StartChar: uni2027
Encoding: 8231 8231 275
Width: 500
VWidth: 0
Flags: H
LayerCount: 2
Fore
SplineSet
177 333.984 m 4
 177 378.705 209.704 415 250 415 c 4
 290.296 415 323 378.705 323 333.984 c 4
 323 289.263 290.296 252.968 250 252.968 c 4
 209.704 252.968 177 289.263 177 333.984 c 4
EndSplineSet
EndChar

StartChar: endash
Encoding: 8211 8211 276
Width: 500
VWidth: 0
Flags: HW
LayerCount: 2
Fore
SplineSet
41 374.992 m 1
 375 375 l 1
 375 292 l 1
 41 291.992 l 1
 41 374.992 l 1
EndSplineSet
EndChar

StartChar: emdash
Encoding: 8212 8212 277
Width: 500
VWidth: 0
Flags: HW
LayerCount: 2
Fore
SplineSet
41 374.992 m 1
 459 374.992 l 1
 459 291.992 l 1
 41 291.992 l 1
 41 374.992 l 1
EndSplineSet
EndChar

StartChar: afii00208
Encoding: 8213 8213 278
Width: 500
VWidth: 0
Flags: HW
LayerCount: 2
Fore
SplineSet
0 374.992 m 1
 500 374.992 l 1
 500 291.992 l 1
 0 291.992 l 1
 0 374.992 l 1
EndSplineSet
EndChar

StartChar: figuredash
Encoding: 8210 8210 283
Width: 500
VWidth: 0
Flags: HW
LayerCount: 2
Fore
SplineSet
125 292 m 1
 459 291.992 l 1
 459 209.961 l 1
 125 209.969 l 1
 125 292 l 1
EndSplineSet
EndChar

StartChar: universal
Encoding: 8704 8704 284
Width: 500
VWidth: 0
Flags: H
LayerCount: 2
Fore
SplineSet
250 83.0078 m 25
 301 291.992 l 25
 198 291.992 l 25
 250 83.0078 l 25
41 666.992 m 25
 125 667 l 25
 183 375 l 25
 315 375 l 25
 375 667 l 25
 459 666.992 l 25
 334 0 l 25
 169 0 l 25
 41 666.992 l 25
EndSplineSet
EndChar

StartChar: uni2201
Encoding: 8705 8705 285
Width: 500
VWidth: 0
Flags: H
LayerCount: 2
Fore
SplineSet
458.984 511 m 9
 375 511 l 17
 375 565 352 584 291.016 584 c 3
 259.023 584 240.977 584 208.984 584 c 17
 149.99 584 125 562 125 458 c 9
 125 361.265 125 306.696 125 209.961 c 3
 125 104 147 83 208.984 83 c 3
 240.977 83 259.023 83 291.016 83 c 27
 339.311 83 375 93 375 174 c 9
 458.984 174 l 17
 458.984 70 450.352 0 375 0 c 27
 277.5 0 222.5 0 125 0 c 27
 54.8711 0 41.0156 88.8711 41.0156 159 c 27
 41.0156 291.6 41.0156 366.4 41.0156 499 c 27
 41.0156 572.251 51.749 667 125 667 c 27
 222.5 667 277.5 667 375 667 c 27
 444.097 667 458.984 616 458.984 511 c 9
EndSplineSet
EndChar

StartChar: uni0338
Encoding: 824 824 286
Width: 500
VWidth: 0
Flags: HW
LayerCount: 2
Fore
SplineSet
124 -166 m 29
 40 -166 l 29
 375 750 l 25
 459 750 l 25
 124 -166 l 29
EndSplineSet
EndChar

StartChar: uni2204
Encoding: 8708 8708 288
Width: 500
VWidth: 0
Flags: W
HStem: -20.0322 20G<41 75.1672 159.167 459> 82.9678 21G<200.342 375> 291.968 83<98 191.897 309.077 375> 583.968 83<41 308.627>
VStem: 375 84<82.9678 291.968 374.968 539.874>
LayerCount: 2
Fore
SplineSet
126 -83 m 1
 42 -83 l 1
 75.1672 -0.0322242 l 1
 41 -0.0322266 l 1
 41 82.9678 l 1
 108.347 82.9678 l 1
 191.897 291.968 l 1
 67 291.968 l 1
 98 374.968 l 1
 225.077 374.968 l 1
 308.627 583.968 l 1
 41 583.968 l 1
 41 666.968 l 1
 341.807 666.968 l 1
 375 750 l 1
 459 750 l 1
 425.807 666.968 l 1
 459 666.968 l 1
 459 -0.0322266 l 1
 159.167 -0.0322242 l 1
 126 -83 l 1
375 539.874 m 1
 309.077 374.968 l 1
 375 374.968 l 1
 375 539.874 l 1
275.897 291.968 m 1
 192.347 82.9678 l 1
 375 82.9678 l 1
 375 291.968 l 1
 275.897 291.968 l 1
EndSplineSet
EndChar

StartChar: uni2074
Encoding: 8308 8308 290
Width: 500
VWidth: 0
Flags: W
HStem: 458.016 82.9922<124.984 208.984 291 374.984> 647.008 20G<208.998 291.016>
VStem: 208.984 82.0156<375.008 458 541.016 667>
LayerCount: 2
Fore
SplineSet
209 667.008 m 25
 291.016 667 l 25
 291 541.016 l 25
 375 541.016 l 25
 374.984 458 l 25
 291 458 l 25
 291 375.008 l 25
 208.984 375.008 l 25
 208.984 458.016 l 25
 41 458.008 l 17
 41 541.008 l 1
 124.984 750.008 l 9
 207.016 750.008 l 25
 124.984 541.008 l 25
 208.984 541.016 l 25
 209 667.008 l 25
EndSplineSet
EndChar

StartChar: uni2081
Encoding: 8321 8321 291
Width: 500
VWidth: 0
Flags: HW
LayerCount: 2
Fore
SplineSet
41.0156 126 m 25
 207.953 292 l 25
 291.984 292 l 25
 292 -83 l 25
 207.969 -83 l 25
 207.969 210 l 25
 123.984 125.984 l 25
 41.0156 126 l 25
EndSplineSet
EndChar

StartChar: arrowboth
Encoding: 8596 8596 297
Width: 500
VWidth: 0
Flags: HW
LayerCount: 2
Fore
SplineSet
41 375.976 m 1
 194.321 458 l 1
 194.321 375 l 1
 305.679 375 l 1
 305.679 458 l 1
 459 375 l 1
 459 292.968 l 1
 305.679 209.961 l 1
 305.679 291.992 l 1
 194.321 291.992 l 1
 194.321 209.961 l 1
 41 292.968 l 1
 41 375.976 l 1
EndSplineSet
EndChar

StartChar: uni2196
Encoding: 8598 8598 299
Width: 500
VWidth: 0
HStem: 584 83<185 291>
VStem: 41 84<418 525>
LayerCount: 2
Fore
SplineSet
41 418 m 1
 41 667 l 1
 291 667 l 1
 291 584 l 1
 185 584 l 1
 417 351 l 1
 358 292 l 1
 125 525 l 1
 125 418 l 1
 41 418 l 1
EndSplineSet
EndChar

StartChar: uni219B
Encoding: 8603 8603 304
Width: 500
VWidth: 0
Flags: W
HStem: 291.992 83.008<41 115.17 217.912 291.016>
LayerCount: 2
Fore
SplineSet
41 291.992 m 1
 41 375 l 1
 133.927 375 l 1
 166.016 517 l 1
 250 517 l 1
 217.912 375 l 1
 291.016 375 l 1
 291.016 458 l 1
 459 375 l 1
 459 291.992 l 1
 291.016 209.961 l 1
 291.016 291.992 l 1
 199.154 291.992 l 1
 163 132 l 1
 79.0156 132 l 1
 115.17 291.992 l 1
 41 291.992 l 1
EndSplineSet
EndChar

StartChar: uni2160
Encoding: 8544 8544 306
Width: 500
VWidth: 0
Flags: W
HStem: 0 21G<125 375> 584 83<125 209 291 375>
VStem: 125 250<0 83 584 667> 209 82<83 584>
LayerCount: 2
Fore
SplineSet
125 0 m 29xe0
 125 83 l 29xe0
 209 83 l 29
 209 584 l 29xd0
 125 584 l 29
 125 667 l 29
 375 667 l 29
 375 584 l 29xe0
 291 584 l 29
 291 83 l 29xd0
 375 83 l 29
 375 0 l 29
 125 0 l 29xe0
EndSplineSet
EndChar

StartChar: uni2161
Encoding: 8545 8545 307
Width: 500
VWidth: 0
Flags: HW
LayerCount: 2
Fore
SplineSet
291 82.9844 m 5
 291 583.984 l 5
 208.984 583.984 l 5
 208.984 82.9844 l 5
 291 82.9844 l 5
41 -0.015625 m 5
 41 82.9844 l 5
 125 82.9844 l 5
 125 583.984 l 5
 41 583.984 l 5
 41 666.984 l 5
 208.984 666.984 l 5
 291 666.984 l 5
 458.984 666.984 l 5
 458.984 583.984 l 5
 374.984 583.984 l 5
 374.984 82.9844 l 5
 458.984 82.9844 l 5
 458.984 -0.015625 l 5
 291 -0.015625 l 5
 208.984 -0.015625 l 5
 41 -0.015625 l 5
EndSplineSet
EndChar

StartChar: uni2162
Encoding: 8546 8546 309
Width: 500
VWidth: 0
Flags: W
HStem: 0.0078125 83<0 41.0156 125 208.984 291.016 375 458.984 500> 584.008 83<0 41.0156 125 208.984 291.016 375 459 500>
VStem: 41.0156 83.9844<83.0078 584.008> 208.984 82.0312<83 584> 375 83.984<83.0059 583.984>
LayerCount: 2
Fore
SplineSet
208.984 83 m 5
 208.984 584 l 5
 125 584.008 l 5
 125 83.0078 l 5
 208.984 83 l 5
291.016 584 m 5
 291.016 83 l 5
 375 83.0059 l 13
 375 583.984 l 29
 291.016 584 l 5
458.984 83.0019 m 5
 500 83 l 5
 500 0 l 5
 250 0.0078125 l 5
 167.984 0.0078125 l 5
 0 0.0078125 l 5
 0 83.0078 l 5
 41.0156 83.0078 l 5
 41.0156 584.008 l 5
 0 584.008 l 5
 0 667.008 l 5
 167.984 667.008 l 5
 250 667.008 l 5
 500 667 l 5
 500 584 l 5
 459 584.002 l 5
 458.984 83.0019 l 5
EndSplineSet
EndChar

StartChar: uni2163
Encoding: 8547 8547 310
Width: 500
VWidth: 0
Flags: W
HStem: 0.0078125 82.9922<0 41.0156 125 291.016 375 500> 584.008 83<0 41.0156 125 208.984 291.016 375 459 500>
VStem: 41.0156 83.9844<83.0078 584.008> 208.984 82.0316<541.248 584> 375 84<542.252 583.984>
LayerCount: 2
Fore
SplineSet
375 583.984 m 25
 291.016 584 l 25
 333 209.961 l 25
 375 583.984 l 25
291.016 83 m 1
 208.984 584 l 1
 125 584.008 l 1
 125 83.0078 l 1
 291.016 83 l 1
375 83.0078 m 1
 500 83 l 1
 500 0 l 1
 250 0.0078125 l 1
 167.984 0.0078125 l 1
 0 0.0078125 l 1
 0 83.0078 l 1
 41.0156 83.0078 l 1
 41.0156 584.008 l 1
 0 584.008 l 1
 0 667.008 l 1
 167.984 667.008 l 1
 250 667.008 l 1
 500 667 l 1
 500 584 l 1
 459 584.002 l 1
 375 83.0078 l 1
EndSplineSet
EndChar

StartChar: uni2164
Encoding: 8548 8548 311
Width: 500
VWidth: 0
Flags: HW
LayerCount: 2
Fore
SplineSet
61.9076 583.984 m 1
 0 583.984 l 1
 0 667 l 1
 41 667 l 1
 125 667 l 1
 208.984 667 l 1
 208.984 583.984 l 1
 144.005 583.984 l 1
 250 121 l 1
 355.995 583.984 l 1
 291.016 583.984 l 1
 291.016 667 l 1
 375 667 l 1
 459 667 l 1
 500 667 l 1
 500 583.984 l 1
 438.092 583.984 l 1
 291.016 0 l 1
 208.984 0 l 1
 61.9076 583.984 l 1
EndSplineSet
EndChar

StartChar: uni2169
Encoding: 8553 8553 313
Width: 500
VWidth: 0
Flags: HW
LayerCount: 2
Fore
SplineSet
82.875 583.984 m 5
 0 583.984 l 5
 0 666.992 l 5
 41 666.992 l 5
 125 666.992 l 5
 208.984 666.992 l 5
 208.984 583.984 l 5
 166.565 583.984 l 5
 249.997 417.363 l 5
 333.433 583.984 l 5
 291.016 583.984 l 5
 291.016 666.992 l 5
 375 666.992 l 5
 458.984 666.992 l 5
 500 666.992 l 5
 500 583.984 l 5
 417.113 583.984 l 5
 291.016 334 l 5
 417.244 83 l 5
 500 83 l 5
 500 0 l 5
 458.984 0 l 5
 375 0 l 5
 291.016 0 l 5
 291.016 83 l 5
 333.437 83 l 5
 249.997 249.629 l 5
 166.561 83 l 5
 208.984 83 l 5
 208.984 0 l 5
 125 0 l 5
 41 0 l 5
 0 0 l 5
 0 83 l 5
 82.7445 83 l 5
 208.984 334 l 5
 82.875 583.984 l 5
EndSplineSet
EndChar

StartChar: uni216A
Encoding: 8554 8554 315
Width: 500
VWidth: 0
Flags: W
HStem: 0 21G<0 500> 83 21G<0 40.8691 124.686 291.562 365.311 375.364 458.984 500> 583.984 83.0076<0 41 124.689 291.559 458.984 500>
VStem: 375.369 83.6149<83.0052 583.984>
LayerCount: 2
Fore
SplineSet
124.689 583.984 m 5
 208.122 417.363 l 5
 291.559 583.984 l 5
 124.689 583.984 l 5
291.562 83 m 5
 208.122 249.629 l 5
 124.686 83 l 5
 291.562 83 l 5
375.238 583.984 m 1
 249.141 334 l 5
 375.369 83 l 1
 375.238 583.984 l 1
458.984 83.0052 m 1
 500 83.0078 l 9
 500 0 l 25
 0 0 l 25
 0 83.0078 l 1
 40.8691 83 l 1
 167.109 334 l 5
 41 583.984 l 1
 0 583.992 l 9
 0 666.992 l 25
 500 666.992 l 25
 500 583.992 l 1
 458.984 583.99 l 1
 458.984 83.0052 l 1
EndSplineSet
EndChar

StartChar: uni2166
Encoding: 8550 8550 316
Width: 500
VWidth: 0
Flags: W
HStem: 0 21G<0 500> 83.0078 21G<0 126.953 208.984 291.016 458.984 500> 583.992 82.9998<0 41.1309 125 208.984 354 395 458.984 500>
VStem: 41.1309 83.8691<543.129 583.984> 291.016 62.9844<83.0078 583.984 583.984 583.984> 395 63.984<83.0078 583.984>
LayerCount: 2
Fore
SplineSet
354 583.984 m 1
 354 83.0078 l 1
 395 83.0078 l 1
 395 583.984 l 1
 354 583.984 l 1
125 583.984 m 1
 166.56 229 l 1
 208.984 584 l 1
 125 583.984 l 1
290.885 583.984 m 1
 208.984 83 l 1
 291.016 83 l 1
 290.885 583.984 l 1
458.984 83.0052 m 1
 500 83.0078 l 9
 500 0 l 25
 0 0 l 25
 0 83.0078 l 1
 126.953 83 l 1
 41.1309 583.992 l 1
 0 583.992 l 9
 0 666.992 l 25
 500 666.992 l 25
 500 583.992 l 1
 458.984 583.99 l 1
 458.984 83.0052 l 1
EndSplineSet
EndChar

StartChar: uni216B
Encoding: 8555 8555 317
Width: 500
VWidth: 0
Flags: W
HStem: 0 21G<0 500> 83.0078 21G<83.123 250 323.006 332.995 458.984 500> 583.992 82.9998<0 0.130859 83.127 249.996 375 416 458.984 500>
VStem: 333 42<83.0078 583.984> 416 42.984<83.0078 583.984>
LayerCount: 2
Fore
SplineSet
375 583.984 m 5
 375 83.0078 l 5
 416 83.0078 l 5
 416 583.984 l 5
 375 583.984 l 5
83.127 583.992 m 5
 166.56 417.371 l 5
 249.996 583.992 l 5
 83.127 583.992 l 5
250 83.0078 m 5
 166.56 249.637 l 5
 83.123 83.0078 l 5
 250 83.0078 l 5
332.869 583.992 m 5
 207.578 334.008 l 5
 333 83.0078 l 5
 332.869 583.992 l 5
458.984 83.0052 m 5
 500 83.0078 l 13
 500 0 l 29
 0 0 l 29
 0 83.0078 l 5
 125.547 334.008 l 5
 0.130859 583.992 l 5
 0 583.992 l 13
 0 666.992 l 29
 500 666.992 l 29
 500 583.992 l 5
 458.984 583.99 l 5
 458.984 83.0052 l 5
EndSplineSet
EndChar

StartChar: uni2167
Encoding: 8551 8551 318
Width: 500
VWidth: 0
Flags: HW
LayerCount: 2
Fore
SplineSet
418 583.984 m 1
 375 583.984 l 1
 375 83.0078 l 1
 418 83.0078 l 1
 418 583.984 l 1
291.146 583.991 m 1
 291.146 83.0156 l 1
 332.146 83.0156 l 1
 332.146 583.991 l 1
 291.146 583.991 l 1
83.127 583.992 m 1
 149 209.961 l 1
 208.996 583.992 l 1
 83.127 583.992 l 1
250.016 584 m 1
 173 83.0078 l 1
 250.146 83.0156 l 1
 250.016 584 l 1
500 83.0078 m 9
 500 0 l 25
 0 0 l 25
 0 83.0078 l 1
 126 83.0078 l 1
 41 583.984 l 1
 0 583.992 l 9
 0 666.992 l 25
 500 666.992 l 25
 500 583.992 l 1
 459 583.984 l 1
 459 83.0078 l 1
 500 83.0078 l 9
EndSplineSet
EndChar

StartChar: uni216C
Encoding: 8556 8556 320
Width: 500
VWidth: 0
HStem: 0 21G<0 458.984> 584 82.992<0 41.0156 125 208.984>
VStem: 41.0156 83.9844<83.0078 584> 375 83.984<83.0078 209.961>
LayerCount: 2
Fore
SplineSet
458.984 0 m 1
 0 0 l 1
 0 83.0078 l 1
 41.0156 83.0078 l 1
 41.0156 584 l 1
 0 584 l 1
 0 666.992 l 1
 208.984 666.992 l 1
 208.984 584 l 1
 125 584 l 1
 125 83.0078 l 1
 375 83.0078 l 1
 375 209.961 l 1
 458.984 209.961 l 1
 458.984 0 l 1
EndSplineSet
EndChar
